<svg width="1398" height="830" viewBox="0 0 1398 830" fill="none" xmlns="http://www.w3.org/2000/svg">
<path d="M673.473 0.896199C597.436 8.73251 529.241 47.3828 484.31 108.081C458.255 143.411 442.835 181.131 435.391 227.352C432.467 245.15 432.201 281.41 434.726 299.739C451.343 419.01 543.731 511.319 663.503 528.32C681.183 530.843 717.873 530.445 735.951 527.656C833.79 512.249 912.884 448.23 947.048 356.851C958.082 327.232 962.867 299.739 963 265.87C963 220.047 954.226 183.921 933.356 143.278C898.661 75.9388 836.581 26.663 763.202 8.20122C736.084 1.29463 699.129 -1.62736 673.473 0.896199ZM723.057 16.9672C763.202 21.3503 802.152 35.0306 834.321 56.2816C929.634 119.238 970.843 236.384 935.217 343.569C930.564 357.515 915.277 390.985 914.081 389.79C913.682 389.524 913.948 384.743 914.745 379.297C917.005 361.632 916.607 357.116 912.22 352.733C906.637 347.288 905.44 347.819 905.44 355.788C905.307 366.945 902.915 380.891 899.99 387.001C896.667 393.907 889.887 398.423 883.905 397.759C876.594 397.095 874.866 391.649 873.403 363.89C870.479 308.372 869.283 300.137 863.567 293.895C860.908 291.105 859.18 290.441 853.862 290.441C845.886 290.441 843.76 292.434 845.089 298.942C846.019 304.52 845.886 304.52 839.373 301.067C832.859 297.614 830.865 297.746 820.098 301.864C809.064 306.114 800.822 313.153 795.372 323.38C788.327 336.662 786.599 346.491 786.997 371.461C787.928 416.752 788.061 413.963 784.206 421.401C782.212 425.12 777.825 430.698 774.502 433.62C763.202 443.581 741.933 449.558 730.9 445.972C726.114 444.378 716.144 434.417 717.341 432.558C717.74 432.026 720.797 431.229 724.253 430.698C740.737 428.573 756.423 412.635 761.873 392.712C769.982 363.226 761.076 337.061 741.933 333.607C736.483 332.678 716.277 337.061 708.833 340.912C701.655 344.499 692.084 355.655 688.893 363.89C684.241 376.375 683.044 386.469 683.842 404.4C685.437 438.933 694.609 458.059 713.486 466.692C719.335 469.348 722.791 470.012 731.83 470.012C757.752 469.88 783.94 454.207 793.245 433.222C795.372 428.44 797.366 424.721 797.765 424.588C798.164 424.588 800.025 426.979 802.152 429.768C804.146 432.69 808.267 436.276 811.457 437.737C821.56 442.652 830.466 440.925 842.829 431.893C847.216 428.706 851.868 424.057 853.065 421.666C854.261 419.276 855.458 417.018 855.591 416.885C855.856 416.619 857.983 417.815 860.243 419.541C867.156 424.588 876.727 423.659 895.47 415.822C899.591 414.096 887.096 429.237 872.473 443.316C822.623 491.928 756.955 517.296 688.096 514.507C670.814 513.71 664.7 513.046 646.488 509.46L639.442 507.999L644.494 503.084C648.349 499.498 651.007 494.717 654.597 485.154C661.908 466.028 665.63 449.293 670.947 410.377L675.733 375.445L672.675 369.203C668.688 361.499 663.902 357.913 657.255 357.648L652.204 357.515L651.938 370.133C651.406 393.907 648.881 424.456 644.893 455.402C640.905 485.685 639.841 491.795 638.778 490.599C638.512 490.334 634.125 468.286 629.074 441.722C624.022 415.158 619.237 391.915 618.572 390.055C614.983 381.024 600.493 374.914 593.847 379.828C591.72 381.422 592.251 385.008 602.221 438.269C608.07 469.481 613.653 496.311 614.451 497.904C615.78 500.428 615.647 500.561 612.324 499.764C610.33 499.233 604.88 497.107 600.36 495.115L592.118 491.396L589.991 477.583C585.339 448.894 584.541 437.605 584.541 404.666C584.541 358.843 588.529 331.482 600.493 293.363C606.874 273.042 621.364 239.439 626.947 232.267C627.08 232.134 632.929 230.407 639.708 228.548C646.621 226.821 659.382 221.774 668.156 217.524C702.718 200.656 728.507 175.686 744.592 143.942C751.637 129.996 752.568 124.816 749.378 117.246C745.921 108.878 737.414 104.761 726.646 106.487C720.265 107.417 704.712 116.316 687.165 129.066C665.364 144.872 628.409 184.983 616.445 205.703C612.989 211.945 609.533 212.742 590.523 211.68C566.462 210.352 549.181 203.976 536.42 191.89C525.519 181.663 523.259 176.616 523.259 162.935C523.259 154.036 523.791 150.583 526.051 146.466C529.906 138.895 531.9 138.895 531.9 146.333C531.9 156.693 534.692 170.639 537.483 173.428C542.668 179.139 550.909 178.342 555.296 171.701C557.157 168.779 557.29 167.053 555.961 159.88C555.163 155.232 554.499 143.278 554.499 133.184C554.499 114.988 553.701 110.87 549.314 107.683C548.251 106.753 539.344 104.761 529.64 103.034C519.936 101.307 511.96 99.5806 511.96 99.0493C511.96 96.7914 541.87 69.8292 552.903 61.9929C603.019 26.663 664.301 10.4591 723.057 16.9672ZM507.042 121.629C509.833 122.293 512.492 123.09 512.758 123.488C513.157 123.886 511.694 126.676 509.567 129.863C502.522 140.489 500.661 147.528 500.661 163.599C500.661 176.748 501.06 179.006 504.25 186.046C509.567 197.202 516.48 205.969 525.386 212.875C541.338 225.094 563.272 232.798 586.535 234.259L599.43 235.056L594.245 246.08C566.064 307.575 555.296 383.813 564.601 458.192C565.665 467.489 566.462 475.724 566.197 476.388C565.266 479.177 539.477 458.856 521.93 441.191C499.597 418.877 488.697 404.001 475.67 378.102C442.569 312.489 439.246 241.298 466.098 172.498C472.612 156.029 476.201 148.856 487.102 131.324C494.679 119.371 495.477 118.972 507.042 121.629ZM721.993 138.629C712.555 155.497 696.869 172.631 680.386 184.319C669.618 191.89 647.551 203.445 647.551 201.585C647.551 197.999 674.005 169.443 689.159 156.427C700.06 147.395 722.924 131.059 725.051 131.059C725.716 131.059 724.253 134.512 721.993 138.629ZM836.581 315.81C843.494 319.529 846.817 339.584 847.083 381.422C847.216 401.345 846.019 408.252 841.234 415.424C833.923 426.448 820.895 417.947 815.711 398.689C812.388 386.337 811.457 353.397 814.249 340.514C816.774 328.029 818.768 324.044 825.016 318.466C830.068 314.083 832.327 313.552 836.581 315.81ZM732.628 351.936C738.211 354.726 740.604 361.367 740.604 374.25C740.604 395.368 734.223 407.189 719.734 412.635C715.613 414.096 712.024 415.025 711.625 414.627C710.03 413.033 709.764 373.187 711.226 365.882C714.017 352.601 722.658 346.889 732.628 351.936Z" fill="#1B019B"/>
<path d="M9.856 785V694.76H69.888V707.816H25.6V732.648H67.072V745.704H25.6V771.944H69.888V785H9.856ZM75.991 785L102.231 752.616L77.655 722.408H96.343L111.447 741.736L126.551 722.408H145.239L120.535 752.744L146.903 785H128.087L111.319 763.88L94.679 785H75.991ZM154.57 808.04V722.408H170.186V732.392C171.978 728.979 174.666 726.248 178.25 724.2C181.919 722.152 186.058 721.128 190.666 721.128C196.127 721.128 200.906 722.451 205.002 725.096C209.183 727.741 212.426 731.496 214.73 736.36C217.034 741.139 218.186 746.899 218.186 753.64C218.186 760.296 217.034 766.099 214.73 771.048C212.426 775.912 209.226 779.667 205.13 782.312C201.034 784.957 196.213 786.28 190.666 786.28C186.229 786.28 182.218 785.341 178.634 783.464C175.135 781.501 172.447 778.899 170.57 775.656V808.04H154.57ZM186.186 774.12C190.965 774.12 194.805 772.413 197.706 769C200.607 765.501 202.058 760.381 202.058 753.64C202.058 746.813 200.607 741.736 197.706 738.408C194.805 734.995 190.965 733.288 186.186 733.288C181.407 733.288 177.567 734.995 174.666 738.408C171.765 741.736 170.314 746.813 170.314 753.64C170.314 760.381 171.765 765.501 174.666 769C177.567 772.413 181.407 774.12 186.186 774.12ZM259.864 786.28C253.379 786.28 247.747 784.957 242.968 782.312C238.189 779.667 234.477 775.912 231.832 771.048C229.187 766.099 227.864 760.296 227.864 753.64C227.864 746.984 229.187 741.224 231.832 736.36C234.477 731.496 238.189 727.741 242.968 725.096C247.747 722.451 253.379 721.128 259.864 721.128C266.349 721.128 271.981 722.451 276.76 725.096C281.539 727.741 285.251 731.496 287.896 736.36C290.541 741.224 291.864 746.984 291.864 753.64C291.864 760.296 290.541 766.099 287.896 771.048C285.251 775.912 281.539 779.667 276.76 782.312C271.981 784.957 266.349 786.28 259.864 786.28ZM259.864 774.12C264.643 774.12 268.483 772.413 271.384 769C274.285 765.501 275.736 760.381 275.736 753.64C275.736 746.813 274.285 741.736 271.384 738.408C268.483 734.995 264.643 733.288 259.864 733.288C255.085 733.288 251.245 734.995 248.344 738.408C245.443 741.736 243.992 746.813 243.992 753.64C243.992 760.381 245.443 765.501 248.344 769C251.245 772.413 255.085 774.12 259.864 774.12ZM305.07 785V722.408H320.686V733.416C323.758 725.992 330.329 721.896 340.398 721.128L345.262 720.744L346.286 734.312L337.07 735.208C326.574 736.232 321.326 741.608 321.326 751.336V785H305.07ZM387.492 786.28C370.937 786.28 362.66 778.088 362.66 761.704V734.44H350.628V722.408H362.66V703.72H378.66V722.408H397.604V734.44H378.66V760.808C378.66 764.904 379.556 767.976 381.348 770.024C383.14 772.072 386.041 773.096 390.052 773.096C391.247 773.096 392.484 772.968 393.764 772.712C395.044 772.371 396.367 772.029 397.732 771.688L400.164 783.464C398.628 784.317 396.665 785 394.276 785.512C391.972 786.024 389.711 786.28 387.492 786.28ZM442.701 785V722.408H458.317V732.008C460.194 728.595 462.797 725.949 466.125 724.072C469.453 722.109 473.293 721.128 477.645 721.128C487.032 721.128 493.176 725.224 496.077 733.416C498.04 729.576 500.856 726.589 504.525 724.456C508.194 722.237 512.376 721.128 517.069 721.128C531.149 721.128 538.189 729.704 538.189 746.856V785H522.189V747.496C522.189 742.717 521.378 739.219 519.757 737C518.221 734.781 515.576 733.672 511.821 733.672C507.64 733.672 504.354 735.165 501.965 738.152C499.576 741.053 498.381 745.107 498.381 750.312V785H482.381V747.496C482.381 742.717 481.57 739.219 479.949 737C478.413 734.781 475.81 733.672 472.141 733.672C467.96 733.672 464.674 735.165 462.285 738.152C459.896 741.053 458.701 745.107 458.701 750.312V785H442.701ZM575.303 786.28C570.78 786.28 566.727 785.427 563.143 783.72C559.644 781.928 556.871 779.539 554.823 776.552C552.86 773.565 551.879 770.195 551.879 766.44C551.879 761.832 553.074 758.205 555.463 755.56C557.852 752.829 561.735 750.867 567.111 749.672C572.487 748.477 579.698 747.88 588.743 747.88H593.223V745.192C593.223 740.925 592.284 737.853 590.407 735.976C588.53 734.099 585.372 733.16 580.935 733.16C577.436 733.16 573.852 733.715 570.183 734.824C566.514 735.848 562.802 737.469 559.047 739.688L554.439 728.808C556.658 727.272 559.26 725.949 562.247 724.84C565.319 723.645 568.519 722.749 571.847 722.152C575.26 721.469 578.46 721.128 581.447 721.128C590.578 721.128 597.362 723.261 601.799 727.528C606.236 731.709 608.455 738.237 608.455 747.112V785H593.479V775.016C592.028 778.515 589.724 781.288 586.567 783.336C583.41 785.299 579.655 786.28 575.303 786.28ZM578.631 775.272C582.812 775.272 586.268 773.821 588.999 770.92C591.815 768.019 593.223 764.349 593.223 759.912V757.096H588.871C580.85 757.096 575.26 757.736 572.103 759.016C569.031 760.211 567.495 762.429 567.495 765.672C567.495 768.488 568.476 770.792 570.439 772.584C572.402 774.376 575.132 775.272 578.631 775.272ZM648.759 786.28C643.298 786.28 638.476 784.957 634.295 782.312C630.199 779.667 626.999 775.912 624.695 771.048C622.391 766.099 621.239 760.296 621.239 753.64C621.239 746.899 622.391 741.139 624.695 736.36C626.999 731.496 630.199 727.741 634.295 725.096C638.476 722.451 643.298 721.128 648.759 721.128C653.196 721.128 657.207 722.109 660.791 724.072C664.375 726.035 667.063 728.637 668.855 731.88V694.76H684.855V785H669.239V774.632C667.532 778.216 664.844 781.075 661.175 783.208C657.506 785.256 653.367 786.28 648.759 786.28ZM653.239 774.12C658.018 774.12 661.858 772.413 664.759 769C667.66 765.501 669.111 760.381 669.111 753.64C669.111 746.813 667.66 741.736 664.759 738.408C661.858 734.995 658.018 733.288 653.239 733.288C648.46 733.288 644.62 734.995 641.719 738.408C638.818 741.736 637.367 746.813 637.367 753.64C637.367 760.381 638.818 765.501 641.719 769C644.62 772.413 648.46 774.12 653.239 774.12ZM732.293 786.28C725.21 786.28 719.109 784.957 713.989 782.312C708.869 779.667 704.901 775.912 702.085 771.048C699.354 766.184 697.989 760.424 697.989 753.768C697.989 747.283 699.312 741.608 701.957 736.744C704.688 731.88 708.4 728.083 713.093 725.352C717.872 722.536 723.29 721.128 729.349 721.128C738.224 721.128 745.221 723.944 750.341 729.576C755.546 735.208 758.149 742.888 758.149 752.616V757.352H713.349C714.544 768.531 720.944 774.12 732.549 774.12C736.048 774.12 739.546 773.608 743.045 772.584C746.544 771.475 749.744 769.768 752.645 767.464L757.125 778.216C754.138 780.691 750.384 782.653 745.861 784.104C741.338 785.555 736.816 786.28 732.293 786.28ZM729.989 732.008C725.296 732.008 721.498 733.459 718.597 736.36C715.696 739.261 713.946 743.187 713.349 748.136H744.837C744.496 742.931 743.045 738.963 740.485 736.232C738.01 733.416 734.512 732.008 729.989 732.008ZM836.168 786.28C829.085 786.28 822.984 784.957 817.864 782.312C812.744 779.667 808.776 775.912 805.96 771.048C803.229 766.184 801.864 760.424 801.864 753.768C801.864 747.283 803.187 741.608 805.832 736.744C808.563 731.88 812.275 728.083 816.968 725.352C821.747 722.536 827.165 721.128 833.224 721.128C842.099 721.128 849.096 723.944 854.216 729.576C859.421 735.208 862.024 742.888 862.024 752.616V757.352H817.224C818.419 768.531 824.819 774.12 836.424 774.12C839.923 774.12 843.421 773.608 846.92 772.584C850.419 771.475 853.619 769.768 856.52 767.464L861 778.216C858.013 780.691 854.259 782.653 849.736 784.104C845.213 785.555 840.691 786.28 836.168 786.28ZM833.864 732.008C829.171 732.008 825.373 733.459 822.472 736.36C819.571 739.261 817.821 743.187 817.224 748.136H848.712C848.371 742.931 846.92 738.963 844.36 736.232C841.885 733.416 838.387 732.008 833.864 732.008ZM878.669 785V734.44H866.637V722.408H878.669V722.28C878.669 713.405 880.973 706.707 885.581 702.184C890.274 697.661 897.528 695.101 907.341 694.504L913.613 694.12L914.637 705.896L908.749 706.28C903.629 706.621 900.002 707.901 897.869 710.12C895.736 712.253 894.669 715.453 894.669 719.72V722.408H911.693V734.44H894.669V785H878.669ZM922.294 785V734.44H910.262V722.408H922.294V722.28C922.294 713.405 924.598 706.707 929.206 702.184C933.899 697.661 941.153 695.101 950.966 694.504L957.238 694.12L958.262 705.896L952.374 706.28C947.254 706.621 943.627 707.901 941.494 710.12C939.361 712.253 938.294 715.453 938.294 719.72V722.408H955.318V734.44H938.294V785H922.294ZM991.614 786.28C985.129 786.28 979.497 784.957 974.718 782.312C969.939 779.667 966.227 775.912 963.582 771.048C960.937 766.099 959.614 760.296 959.614 753.64C959.614 746.984 960.937 741.224 963.582 736.36C966.227 731.496 969.939 727.741 974.718 725.096C979.497 722.451 985.129 721.128 991.614 721.128C998.099 721.128 1003.73 722.451 1008.51 725.096C1013.29 727.741 1017 731.496 1019.65 736.36C1022.29 741.224 1023.61 746.984 1023.61 753.64C1023.61 760.296 1022.29 766.099 1019.65 771.048C1017 775.912 1013.29 779.667 1008.51 782.312C1003.73 784.957 998.099 786.28 991.614 786.28ZM991.614 774.12C996.393 774.12 1000.23 772.413 1003.13 769C1006.04 765.501 1007.49 760.381 1007.49 753.64C1007.49 746.813 1006.04 741.736 1003.13 738.408C1000.23 734.995 996.393 733.288 991.614 733.288C986.835 733.288 982.995 734.995 980.094 738.408C977.193 741.736 975.742 746.813 975.742 753.64C975.742 760.381 977.193 765.501 980.094 769C982.995 772.413 986.835 774.12 991.614 774.12ZM1036.82 785V722.408H1052.44V733.416C1055.51 725.992 1062.08 721.896 1072.15 721.128L1077.01 720.744L1078.04 734.312L1068.82 735.208C1058.32 736.232 1053.08 741.608 1053.08 751.336V785H1036.82ZM1119.24 786.28C1102.69 786.28 1094.41 778.088 1094.41 761.704V734.44H1082.38V722.408H1094.41V703.72H1110.41V722.408H1129.35V734.44H1110.41V760.808C1110.41 764.904 1111.31 767.976 1113.1 770.024C1114.89 772.072 1117.79 773.096 1121.8 773.096C1123 773.096 1124.23 772.968 1125.51 772.712C1126.79 772.371 1128.12 772.029 1129.48 771.688L1131.91 783.464C1130.38 784.317 1128.42 785 1126.03 785.512C1123.72 786.024 1121.46 786.28 1119.24 786.28ZM1161.46 786.28C1154.03 786.28 1148.53 784.275 1144.94 780.264C1141.44 776.168 1139.7 770.195 1139.7 762.344V694.76H1155.7V761.576C1155.7 769.256 1158.94 773.096 1165.42 773.096C1166.36 773.096 1167.3 773.053 1168.24 772.968C1169.18 772.883 1170.07 772.712 1170.93 772.456L1170.67 785.128C1167.6 785.896 1164.53 786.28 1161.46 786.28ZM1210.79 786.28C1203.71 786.28 1197.61 784.957 1192.49 782.312C1187.37 779.667 1183.4 775.912 1180.59 771.048C1177.85 766.184 1176.49 760.424 1176.49 753.768C1176.49 747.283 1177.81 741.608 1180.46 736.744C1183.19 731.88 1186.9 728.083 1191.59 725.352C1196.37 722.536 1201.79 721.128 1207.85 721.128C1216.72 721.128 1223.72 723.944 1228.84 729.576C1234.05 735.208 1236.65 742.888 1236.65 752.616V757.352H1191.85C1193.04 768.531 1199.44 774.12 1211.05 774.12C1214.55 774.12 1218.05 773.608 1221.55 772.584C1225.04 771.475 1228.24 769.768 1231.15 767.464L1235.62 778.216C1232.64 780.691 1228.88 782.653 1224.36 784.104C1219.84 785.555 1215.32 786.28 1210.79 786.28ZM1208.49 732.008C1203.8 732.008 1200 733.459 1197.1 736.36C1194.2 739.261 1192.45 743.187 1191.85 748.136H1223.34C1223 742.931 1221.55 738.963 1218.99 736.232C1216.51 733.416 1213.01 732.008 1208.49 732.008ZM1272.23 786.28C1266.94 786.28 1261.99 785.64 1257.38 784.36C1252.78 783.08 1248.94 781.245 1245.86 778.856L1249.96 768.36C1253.12 770.493 1256.66 772.157 1260.58 773.352C1264.51 774.461 1268.43 775.016 1272.36 775.016C1276.46 775.016 1279.49 774.333 1281.45 772.968C1283.5 771.517 1284.52 769.64 1284.52 767.336C1284.52 763.752 1281.87 761.448 1276.58 760.424L1263.78 757.992C1252.95 755.944 1247.53 750.312 1247.53 741.096C1247.53 737 1248.64 733.459 1250.86 730.472C1253.16 727.485 1256.32 725.181 1260.33 723.56C1264.34 721.939 1268.95 721.128 1274.15 721.128C1278.59 721.128 1282.86 721.768 1286.95 723.048C1291.05 724.243 1294.55 726.077 1297.45 728.552L1293.1 739.048C1290.62 737 1287.63 735.379 1284.14 734.184C1280.72 732.989 1277.44 732.392 1274.28 732.392C1270.1 732.392 1266.98 733.117 1264.94 734.568C1262.97 736.019 1261.99 737.939 1261.99 740.328C1261.99 744.083 1264.42 746.387 1269.29 747.24L1282.09 749.672C1287.63 750.696 1291.82 752.573 1294.63 755.304C1297.53 758.035 1298.98 761.704 1298.98 766.312C1298.98 772.541 1296.55 777.448 1291.69 781.032C1286.82 784.531 1280.34 786.28 1272.23 786.28ZM1334.73 786.28C1329.44 786.28 1324.49 785.64 1319.88 784.36C1315.28 783.08 1311.44 781.245 1308.36 778.856L1312.46 768.36C1315.62 770.493 1319.16 772.157 1323.08 773.352C1327.01 774.461 1330.93 775.016 1334.86 775.016C1338.96 775.016 1341.99 774.333 1343.95 772.968C1346 771.517 1347.02 769.64 1347.02 767.336C1347.02 763.752 1344.37 761.448 1339.08 760.424L1326.28 757.992C1315.45 755.944 1310.03 750.312 1310.03 741.096C1310.03 737 1311.14 733.459 1313.36 730.472C1315.66 727.485 1318.82 725.181 1322.83 723.56C1326.84 721.939 1331.45 721.128 1336.65 721.128C1341.09 721.128 1345.36 721.768 1349.45 723.048C1353.55 724.243 1357.05 726.077 1359.95 728.552L1355.6 739.048C1353.12 737 1350.13 735.379 1346.64 734.184C1343.22 732.989 1339.94 732.392 1336.78 732.392C1332.6 732.392 1329.48 733.117 1327.44 734.568C1325.47 736.019 1324.49 737.939 1324.49 740.328C1324.49 744.083 1326.92 746.387 1331.79 747.24L1344.59 749.672C1350.13 750.696 1354.32 752.573 1357.13 755.304C1360.03 758.035 1361.48 761.704 1361.48 766.312C1361.48 772.541 1359.05 777.448 1354.19 781.032C1349.32 784.531 1342.84 786.28 1334.73 786.28ZM1377.01 758.248L1372.02 694.76H1391.73L1386.74 758.248H1377.01ZM1372.91 785V767.208H1390.83V785H1372.91Z" fill="#1B019B"/>
</svg>
