<svg width="2057" height="531" viewBox="0 0 2057 531" fill="none" xmlns="http://www.w3.org/2000/svg">
<path d="M240.473 0.949178C164.436 8.78549 96.2414 47.4358 51.3102 108.134C25.2554 143.464 9.83527 181.184 2.39105 227.405C-0.533463 245.203 -0.799328 281.463 1.72639 299.792C18.3429 419.063 110.731 511.372 230.503 528.373C248.183 530.896 284.873 530.498 302.951 527.709C400.79 512.302 479.884 448.283 514.048 356.904C525.082 327.285 529.867 299.792 530 265.923C530 220.1 521.226 183.974 500.356 143.331C465.661 75.9918 403.581 26.716 330.202 8.25419C303.084 1.34761 266.129 -1.57438 240.473 0.949178ZM290.057 17.0202C330.202 21.4033 369.152 35.0836 401.321 56.3346C496.634 119.291 537.843 236.437 502.217 343.622C497.564 357.568 482.277 391.038 481.081 389.843C480.682 389.577 480.948 384.796 481.745 379.35C484.005 361.685 483.607 357.169 479.22 352.786C473.637 347.341 472.44 347.872 472.44 355.841C472.307 366.998 469.915 380.944 466.99 387.054C463.667 393.96 456.887 398.476 450.905 397.812C443.594 397.148 441.866 391.702 440.403 363.943C437.479 308.425 436.283 300.19 430.567 293.948C427.908 291.158 426.18 290.494 420.862 290.494C412.886 290.494 410.76 292.487 412.089 298.995C413.019 304.573 412.886 304.573 406.373 301.12C399.859 297.667 397.865 297.799 387.098 301.917C376.064 306.167 367.822 313.206 362.372 323.433C355.327 336.715 353.599 346.544 353.997 371.514C354.928 416.805 355.061 414.016 351.206 421.454C349.212 425.173 344.825 430.751 341.502 433.673C330.202 443.634 308.933 449.611 297.9 446.025C293.114 444.431 283.144 434.47 284.341 432.61C284.74 432.079 287.797 431.282 291.253 430.751C307.737 428.626 323.423 412.688 328.873 392.765C336.982 363.279 328.076 337.114 308.933 333.66C303.483 332.731 283.277 337.114 275.833 340.965C268.655 344.552 259.084 355.708 255.893 363.943C251.241 376.428 250.044 386.522 250.842 404.453C252.437 438.986 261.609 458.112 280.486 466.745C286.335 469.401 289.791 470.065 298.83 470.065C324.752 469.933 350.94 454.26 360.245 433.275C362.372 428.493 364.366 424.774 364.765 424.641C365.164 424.641 367.025 427.032 369.152 429.821C371.146 432.743 375.267 436.329 378.457 437.79C388.56 442.705 397.466 440.978 409.829 431.946C414.216 428.759 418.868 424.11 420.065 421.719C421.261 419.329 422.458 417.071 422.591 416.938C422.856 416.672 424.983 417.868 427.243 419.594C434.156 424.641 443.727 423.712 462.47 415.875C466.591 414.149 454.096 429.29 439.473 443.369C389.623 491.981 323.955 517.349 255.096 514.56C237.814 513.763 231.7 513.099 213.488 509.513L206.442 508.052L211.494 503.137C215.349 499.551 218.007 494.77 221.597 485.207C228.908 466.081 232.63 449.346 237.947 410.43L242.733 375.498L239.675 369.256C235.688 361.552 230.902 357.966 224.255 357.701L219.204 357.568L218.938 370.186C218.406 393.96 215.881 424.509 211.893 455.455C207.905 485.738 206.841 491.848 205.778 490.652C205.512 490.387 201.125 468.339 196.074 441.775C191.022 415.211 186.237 391.968 185.572 390.108C181.983 381.077 167.493 374.967 160.847 379.881C158.72 381.475 159.251 385.061 169.221 438.322C175.07 469.534 180.653 496.364 181.451 497.957C182.78 500.481 182.647 500.614 179.324 499.817C177.33 499.286 171.88 497.16 167.36 495.168L159.118 491.449L156.991 477.636C152.339 448.947 151.541 437.658 151.541 404.719C151.541 358.896 155.529 331.535 167.493 293.416C173.874 273.095 188.364 239.492 193.947 232.32C194.08 232.187 199.929 230.46 206.708 228.601C213.621 226.874 226.382 221.827 235.156 217.577C269.718 200.709 295.507 175.739 311.592 143.995C318.637 130.049 319.568 124.869 316.378 117.298C312.921 108.931 304.414 104.814 293.646 106.54C287.265 107.47 271.712 116.369 254.165 129.119C232.364 144.925 195.409 185.036 183.445 205.756C179.989 211.998 176.533 212.795 157.523 211.733C133.462 210.405 116.181 204.029 103.42 191.943C92.5193 181.716 90.2594 176.669 90.2594 162.988C90.2594 154.089 90.7911 150.636 93.051 146.519C96.906 138.948 98.9 138.948 98.9 146.386C98.9 156.746 101.692 170.692 104.483 173.481C109.668 179.192 117.909 178.395 122.296 171.754C124.157 168.832 124.29 167.106 122.961 159.933C122.163 155.285 121.499 143.331 121.499 133.237C121.499 115.041 120.701 110.923 116.314 107.736C115.251 106.806 106.344 104.814 96.6402 103.087C86.9361 101.36 78.9601 99.6336 78.9601 99.1023C78.9601 96.8444 108.87 69.8821 119.903 62.0458C170.019 26.716 231.301 10.5121 290.057 17.0202ZM74.0416 121.682C76.8332 122.346 79.4919 123.143 79.7577 123.541C80.1565 123.939 78.6943 126.729 76.5674 129.916C69.5219 140.542 67.6609 147.581 67.6609 163.652C67.6609 176.801 68.0597 179.059 71.2501 186.099C76.5674 197.255 83.4798 206.021 92.3863 212.928C108.338 225.147 130.272 232.851 153.535 234.312L166.43 235.109L161.245 246.133C133.064 307.628 122.296 383.866 131.601 458.245C132.665 467.542 133.462 475.777 133.197 476.441C132.266 479.23 106.477 458.909 88.9301 441.244C66.5974 418.93 55.697 404.054 42.6696 378.155C9.56941 312.542 6.24609 241.351 33.0985 172.551C39.6121 156.082 43.2013 148.909 54.1018 131.377C61.6789 119.424 62.4765 119.025 74.0416 121.682ZM288.993 138.682C279.555 155.55 263.869 172.684 247.386 184.372C236.618 191.943 214.551 203.498 214.551 201.638C214.551 198.052 241.005 169.496 256.159 156.48C267.06 147.448 289.924 131.112 292.051 131.112C292.716 131.112 291.253 134.565 288.993 138.682ZM403.581 315.863C410.494 319.582 413.817 339.637 414.083 381.475C414.216 401.398 413.019 408.305 408.234 415.477C400.923 426.501 387.895 418 382.711 398.742C379.388 386.39 378.457 353.45 381.249 340.567C383.774 328.082 385.768 324.097 392.016 318.519C397.068 314.136 399.327 313.605 403.581 315.863ZM299.628 351.989C305.211 354.779 307.604 361.42 307.604 374.303C307.604 395.421 301.223 407.242 286.734 412.688C282.613 414.149 279.024 415.078 278.625 414.68C277.03 413.086 276.764 373.24 278.226 365.935C281.017 352.654 289.658 346.942 299.628 351.989Z" fill="white"/>
<path d="M668.856 307V216.76H728.888V229.816H684.6V254.648H726.072V267.704H684.6V293.944H728.888V307H668.856ZM734.991 307L761.231 274.616L736.655 244.408H755.343L770.447 263.736L785.551 244.408H804.239L779.535 274.744L805.903 307H787.087L770.319 285.88L753.679 307H734.991ZM813.57 330.04V244.408H829.186V254.392C830.978 250.979 833.666 248.248 837.25 246.2C840.919 244.152 845.058 243.128 849.666 243.128C855.127 243.128 859.906 244.451 864.002 247.096C868.183 249.741 871.426 253.496 873.73 258.36C876.034 263.139 877.186 268.899 877.186 275.64C877.186 282.296 876.034 288.099 873.73 293.048C871.426 297.912 868.226 301.667 864.13 304.312C860.034 306.957 855.213 308.28 849.666 308.28C845.229 308.28 841.218 307.341 837.634 305.464C834.135 303.501 831.447 300.899 829.57 297.656V330.04H813.57ZM845.186 296.12C849.965 296.12 853.805 294.413 856.706 291C859.607 287.501 861.058 282.381 861.058 275.64C861.058 268.813 859.607 263.736 856.706 260.408C853.805 256.995 849.965 255.288 845.186 255.288C840.407 255.288 836.567 256.995 833.666 260.408C830.765 263.736 829.314 268.813 829.314 275.64C829.314 282.381 830.765 287.501 833.666 291C836.567 294.413 840.407 296.12 845.186 296.12ZM918.864 308.28C912.379 308.28 906.747 306.957 901.968 304.312C897.189 301.667 893.477 297.912 890.832 293.048C888.187 288.099 886.864 282.296 886.864 275.64C886.864 268.984 888.187 263.224 890.832 258.36C893.477 253.496 897.189 249.741 901.968 247.096C906.747 244.451 912.379 243.128 918.864 243.128C925.349 243.128 930.981 244.451 935.76 247.096C940.539 249.741 944.251 253.496 946.896 258.36C949.541 263.224 950.864 268.984 950.864 275.64C950.864 282.296 949.541 288.099 946.896 293.048C944.251 297.912 940.539 301.667 935.76 304.312C930.981 306.957 925.349 308.28 918.864 308.28ZM918.864 296.12C923.643 296.12 927.483 294.413 930.384 291C933.285 287.501 934.736 282.381 934.736 275.64C934.736 268.813 933.285 263.736 930.384 260.408C927.483 256.995 923.643 255.288 918.864 255.288C914.085 255.288 910.245 256.995 907.344 260.408C904.443 263.736 902.992 268.813 902.992 275.64C902.992 282.381 904.443 287.501 907.344 291C910.245 294.413 914.085 296.12 918.864 296.12ZM964.07 307V244.408H979.686V255.416C982.758 247.992 989.329 243.896 999.398 243.128L1004.26 242.744L1005.29 256.312L996.07 257.208C985.574 258.232 980.326 263.608 980.326 273.336V307H964.07ZM1046.49 308.28C1029.94 308.28 1021.66 300.088 1021.66 283.704V256.44H1009.63V244.408H1021.66V225.72H1037.66V244.408H1056.6V256.44H1037.66V282.808C1037.66 286.904 1038.56 289.976 1040.35 292.024C1042.14 294.072 1045.04 295.096 1049.05 295.096C1050.25 295.096 1051.48 294.968 1052.76 294.712C1054.04 294.371 1055.37 294.029 1056.73 293.688L1059.16 305.464C1057.63 306.317 1055.67 307 1053.28 307.512C1050.97 308.024 1048.71 308.28 1046.49 308.28ZM1101.7 307V244.408H1117.32V254.008C1119.19 250.595 1121.8 247.949 1125.12 246.072C1128.45 244.109 1132.29 243.128 1136.65 243.128C1146.03 243.128 1152.18 247.224 1155.08 255.416C1157.04 251.576 1159.86 248.589 1163.53 246.456C1167.19 244.237 1171.38 243.128 1176.07 243.128C1190.15 243.128 1197.19 251.704 1197.19 268.856V307H1181.19V269.496C1181.19 264.717 1180.38 261.219 1178.76 259C1177.22 256.781 1174.58 255.672 1170.82 255.672C1166.64 255.672 1163.35 257.165 1160.97 260.152C1158.58 263.053 1157.38 267.107 1157.38 272.312V307H1141.38V269.496C1141.38 264.717 1140.57 261.219 1138.95 259C1137.41 256.781 1134.81 255.672 1131.14 255.672C1126.96 255.672 1123.67 257.165 1121.29 260.152C1118.9 263.053 1117.7 267.107 1117.7 272.312V307H1101.7ZM1234.3 308.28C1229.78 308.28 1225.73 307.427 1222.14 305.72C1218.64 303.928 1215.87 301.539 1213.82 298.552C1211.86 295.565 1210.88 292.195 1210.88 288.44C1210.88 283.832 1212.07 280.205 1214.46 277.56C1216.85 274.829 1220.74 272.867 1226.11 271.672C1231.49 270.477 1238.7 269.88 1247.74 269.88H1252.22V267.192C1252.22 262.925 1251.28 259.853 1249.41 257.976C1247.53 256.099 1244.37 255.16 1239.94 255.16C1236.44 255.16 1232.85 255.715 1229.18 256.824C1225.51 257.848 1221.8 259.469 1218.05 261.688L1213.44 250.808C1215.66 249.272 1218.26 247.949 1221.25 246.84C1224.32 245.645 1227.52 244.749 1230.85 244.152C1234.26 243.469 1237.46 243.128 1240.45 243.128C1249.58 243.128 1256.36 245.261 1260.8 249.528C1265.24 253.709 1267.46 260.237 1267.46 269.112V307H1252.48V297.016C1251.03 300.515 1248.72 303.288 1245.57 305.336C1242.41 307.299 1238.66 308.28 1234.3 308.28ZM1237.63 297.272C1241.81 297.272 1245.27 295.821 1248 292.92C1250.82 290.019 1252.22 286.349 1252.22 281.912V279.096H1247.87C1239.85 279.096 1234.26 279.736 1231.1 281.016C1228.03 282.211 1226.5 284.429 1226.5 287.672C1226.5 290.488 1227.48 292.792 1229.44 294.584C1231.4 296.376 1234.13 297.272 1237.63 297.272ZM1307.76 308.28C1302.3 308.28 1297.48 306.957 1293.3 304.312C1289.2 301.667 1286 297.912 1283.7 293.048C1281.39 288.099 1280.24 282.296 1280.24 275.64C1280.24 268.899 1281.39 263.139 1283.7 258.36C1286 253.496 1289.2 249.741 1293.3 247.096C1297.48 244.451 1302.3 243.128 1307.76 243.128C1312.2 243.128 1316.21 244.109 1319.79 246.072C1323.38 248.035 1326.06 250.637 1327.86 253.88V216.76H1343.86V307H1328.24V296.632C1326.53 300.216 1323.84 303.075 1320.18 305.208C1316.51 307.256 1312.37 308.28 1307.76 308.28ZM1312.24 296.12C1317.02 296.12 1320.86 294.413 1323.76 291C1326.66 287.501 1328.11 282.381 1328.11 275.64C1328.11 268.813 1326.66 263.736 1323.76 260.408C1320.86 256.995 1317.02 255.288 1312.24 255.288C1307.46 255.288 1303.62 256.995 1300.72 260.408C1297.82 263.736 1296.37 268.813 1296.37 275.64C1296.37 282.381 1297.82 287.501 1300.72 291C1303.62 294.413 1307.46 296.12 1312.24 296.12ZM1391.29 308.28C1384.21 308.28 1378.11 306.957 1372.99 304.312C1367.87 301.667 1363.9 297.912 1361.09 293.048C1358.35 288.184 1356.99 282.424 1356.99 275.768C1356.99 269.283 1358.31 263.608 1360.96 258.744C1363.69 253.88 1367.4 250.083 1372.09 247.352C1376.87 244.536 1382.29 243.128 1388.35 243.128C1397.22 243.128 1404.22 245.944 1409.34 251.576C1414.55 257.208 1417.15 264.888 1417.15 274.616V279.352H1372.35C1373.54 290.531 1379.94 296.12 1391.55 296.12C1395.05 296.12 1398.55 295.608 1402.05 294.584C1405.54 293.475 1408.74 291.768 1411.65 289.464L1416.12 300.216C1413.14 302.691 1409.38 304.653 1404.86 306.104C1400.34 307.555 1395.82 308.28 1391.29 308.28ZM1388.99 254.008C1384.3 254.008 1380.5 255.459 1377.6 258.36C1374.7 261.261 1372.95 265.187 1372.35 270.136H1403.84C1403.5 264.931 1402.05 260.963 1399.49 258.232C1397.01 255.416 1393.51 254.008 1388.99 254.008ZM1495.17 308.28C1488.09 308.28 1481.98 306.957 1476.86 304.312C1471.74 301.667 1467.78 297.912 1464.96 293.048C1462.23 288.184 1460.86 282.424 1460.86 275.768C1460.86 269.283 1462.19 263.608 1464.83 258.744C1467.56 253.88 1471.27 250.083 1475.97 247.352C1480.75 244.536 1486.17 243.128 1492.22 243.128C1501.1 243.128 1508.1 245.944 1513.22 251.576C1518.42 257.208 1521.02 264.888 1521.02 274.616V279.352H1476.22C1477.42 290.531 1483.82 296.12 1495.42 296.12C1498.92 296.12 1502.42 295.608 1505.92 294.584C1509.42 293.475 1512.62 291.768 1515.52 289.464L1520 300.216C1517.01 302.691 1513.26 304.653 1508.74 306.104C1504.21 307.555 1499.69 308.28 1495.17 308.28ZM1492.86 254.008C1488.17 254.008 1484.37 255.459 1481.47 258.36C1478.57 261.261 1476.82 265.187 1476.22 270.136H1507.71C1507.37 264.931 1505.92 260.963 1503.36 258.232C1500.89 255.416 1497.39 254.008 1492.86 254.008ZM1537.67 307V256.44H1525.64V244.408H1537.67V244.28C1537.67 235.405 1539.97 228.707 1544.58 224.184C1549.27 219.661 1556.53 217.101 1566.34 216.504L1572.61 216.12L1573.64 227.896L1567.75 228.28C1562.63 228.621 1559 229.901 1556.87 232.12C1554.74 234.253 1553.67 237.453 1553.67 241.72V244.408H1570.69V256.44H1553.67V307H1537.67ZM1581.29 307V256.44H1569.26V244.408H1581.29V244.28C1581.29 235.405 1583.6 228.707 1588.21 224.184C1592.9 219.661 1600.15 217.101 1609.97 216.504L1616.24 216.12L1617.26 227.896L1611.37 228.28C1606.25 228.621 1602.63 229.901 1600.49 232.12C1598.36 234.253 1597.29 237.453 1597.29 241.72V244.408H1614.32V256.44H1597.29V307H1581.29ZM1650.61 308.28C1644.13 308.28 1638.5 306.957 1633.72 304.312C1628.94 301.667 1625.23 297.912 1622.58 293.048C1619.94 288.099 1618.61 282.296 1618.61 275.64C1618.61 268.984 1619.94 263.224 1622.58 258.36C1625.23 253.496 1628.94 249.741 1633.72 247.096C1638.5 244.451 1644.13 243.128 1650.61 243.128C1657.1 243.128 1662.73 244.451 1667.51 247.096C1672.29 249.741 1676 253.496 1678.65 258.36C1681.29 263.224 1682.61 268.984 1682.61 275.64C1682.61 282.296 1681.29 288.099 1678.65 293.048C1676 297.912 1672.29 301.667 1667.51 304.312C1662.73 306.957 1657.1 308.28 1650.61 308.28ZM1650.61 296.12C1655.39 296.12 1659.23 294.413 1662.13 291C1665.04 287.501 1666.49 282.381 1666.49 275.64C1666.49 268.813 1665.04 263.736 1662.13 260.408C1659.23 256.995 1655.39 255.288 1650.61 255.288C1645.84 255.288 1642 256.995 1639.09 260.408C1636.19 263.736 1634.74 268.813 1634.74 275.64C1634.74 282.381 1636.19 287.501 1639.09 291C1642 294.413 1645.84 296.12 1650.61 296.12ZM1695.82 307V244.408H1711.44V255.416C1714.51 247.992 1721.08 243.896 1731.15 243.128L1736.01 242.744L1737.04 256.312L1727.82 257.208C1717.32 258.232 1712.08 263.608 1712.08 273.336V307H1695.82ZM1778.24 308.28C1761.69 308.28 1753.41 300.088 1753.41 283.704V256.44H1741.38V244.408H1753.41V225.72H1769.41V244.408H1788.35V256.44H1769.41V282.808C1769.41 286.904 1770.31 289.976 1772.1 292.024C1773.89 294.072 1776.79 295.096 1780.8 295.096C1782 295.096 1783.23 294.968 1784.51 294.712C1785.79 294.371 1787.12 294.029 1788.48 293.688L1790.91 305.464C1789.38 306.317 1787.42 307 1785.03 307.512C1782.72 308.024 1780.46 308.28 1778.24 308.28ZM1820.46 308.28C1813.03 308.28 1807.53 306.275 1803.94 302.264C1800.44 298.168 1798.7 292.195 1798.7 284.344V216.76H1814.7V283.576C1814.7 291.256 1817.94 295.096 1824.42 295.096C1825.36 295.096 1826.3 295.053 1827.24 294.968C1828.18 294.883 1829.07 294.712 1829.93 294.456L1829.67 307.128C1826.6 307.896 1823.53 308.28 1820.46 308.28ZM1869.79 308.28C1862.71 308.28 1856.61 306.957 1851.49 304.312C1846.37 301.667 1842.4 297.912 1839.59 293.048C1836.85 288.184 1835.49 282.424 1835.49 275.768C1835.49 269.283 1836.81 263.608 1839.46 258.744C1842.19 253.88 1845.9 250.083 1850.59 247.352C1855.37 244.536 1860.79 243.128 1866.85 243.128C1875.72 243.128 1882.72 245.944 1887.84 251.576C1893.05 257.208 1895.65 264.888 1895.65 274.616V279.352H1850.85C1852.04 290.531 1858.44 296.12 1870.05 296.12C1873.55 296.12 1877.05 295.608 1880.55 294.584C1884.04 293.475 1887.24 291.768 1890.15 289.464L1894.62 300.216C1891.64 302.691 1887.88 304.653 1883.36 306.104C1878.84 307.555 1874.32 308.28 1869.79 308.28ZM1867.49 254.008C1862.8 254.008 1859 255.459 1856.1 258.36C1853.2 261.261 1851.45 265.187 1850.85 270.136H1882.34C1882 264.931 1880.55 260.963 1877.99 258.232C1875.51 255.416 1872.01 254.008 1867.49 254.008ZM1931.23 308.28C1925.94 308.28 1920.99 307.64 1916.38 306.36C1911.78 305.08 1907.94 303.245 1904.86 300.856L1908.96 290.36C1912.12 292.493 1915.66 294.157 1919.58 295.352C1923.51 296.461 1927.43 297.016 1931.36 297.016C1935.46 297.016 1938.49 296.333 1940.45 294.968C1942.5 293.517 1943.52 291.64 1943.52 289.336C1943.52 285.752 1940.87 283.448 1935.58 282.424L1922.78 279.992C1911.95 277.944 1906.53 272.312 1906.53 263.096C1906.53 259 1907.64 255.459 1909.86 252.472C1912.16 249.485 1915.32 247.181 1919.33 245.56C1923.34 243.939 1927.95 243.128 1933.15 243.128C1937.59 243.128 1941.86 243.768 1945.95 245.048C1950.05 246.243 1953.55 248.077 1956.45 250.552L1952.1 261.048C1949.62 259 1946.63 257.379 1943.14 256.184C1939.72 254.989 1936.44 254.392 1933.28 254.392C1929.1 254.392 1925.98 255.117 1923.94 256.568C1921.97 258.019 1920.99 259.939 1920.99 262.328C1920.99 266.083 1923.42 268.387 1928.29 269.24L1941.09 271.672C1946.63 272.696 1950.82 274.573 1953.63 277.304C1956.53 280.035 1957.98 283.704 1957.98 288.312C1957.98 294.541 1955.55 299.448 1950.69 303.032C1945.82 306.531 1939.34 308.28 1931.23 308.28ZM1993.73 308.28C1988.44 308.28 1983.49 307.64 1978.88 306.36C1974.28 305.08 1970.44 303.245 1967.36 300.856L1971.46 290.36C1974.62 292.493 1978.16 294.157 1982.08 295.352C1986.01 296.461 1989.93 297.016 1993.86 297.016C1997.96 297.016 2000.99 296.333 2002.95 294.968C2005 293.517 2006.02 291.64 2006.02 289.336C2006.02 285.752 2003.37 283.448 1998.08 282.424L1985.28 279.992C1974.45 277.944 1969.03 272.312 1969.03 263.096C1969.03 259 1970.14 255.459 1972.36 252.472C1974.66 249.485 1977.82 247.181 1981.83 245.56C1985.84 243.939 1990.45 243.128 1995.65 243.128C2000.09 243.128 2004.36 243.768 2008.45 245.048C2012.55 246.243 2016.05 248.077 2018.95 250.552L2014.6 261.048C2012.12 259 2009.13 257.379 2005.64 256.184C2002.22 254.989 1998.94 254.392 1995.78 254.392C1991.6 254.392 1988.48 255.117 1986.44 256.568C1984.47 258.019 1983.49 259.939 1983.49 262.328C1983.49 266.083 1985.92 268.387 1990.79 269.24L2003.59 271.672C2009.13 272.696 2013.32 274.573 2016.13 277.304C2019.03 280.035 2020.48 283.704 2020.48 288.312C2020.48 294.541 2018.05 299.448 2013.19 303.032C2008.32 306.531 2001.84 308.28 1993.73 308.28ZM2036.01 280.248L2031.02 216.76H2050.73L2045.74 280.248H2036.01ZM2031.91 307V289.208H2049.83V307H2031.91Z" fill="white"/>
</svg>
