<svg width="1405" height="830" viewBox="0 0 1405 830" fill="none" xmlns="http://www.w3.org/2000/svg">
<path d="M675.473 0.896199C599.436 8.73251 531.241 47.3828 486.31 108.081C460.255 143.411 444.835 181.131 437.391 227.352C434.467 245.15 434.201 281.41 436.726 299.739C453.343 419.01 545.731 511.319 665.503 528.32C683.183 530.843 719.873 530.445 737.951 527.656C835.79 512.249 914.884 448.23 949.048 356.851C960.082 327.232 964.867 299.739 965 265.87C965 220.047 956.226 183.921 935.356 143.278C900.661 75.9388 838.581 26.663 765.202 8.20122C738.084 1.29463 701.129 -1.62736 675.473 0.896199ZM725.057 16.9672C765.202 21.3503 804.152 35.0306 836.321 56.2816C931.634 119.238 972.843 236.384 937.217 343.569C932.564 357.515 917.277 390.985 916.081 389.79C915.682 389.524 915.948 384.743 916.745 379.297C919.005 361.632 918.607 357.116 914.22 352.733C908.637 347.288 907.44 347.819 907.44 355.788C907.307 366.945 904.915 380.891 901.99 387.001C898.667 393.907 891.887 398.423 885.905 397.759C878.594 397.095 876.866 391.649 875.403 363.89C872.479 308.372 871.283 300.137 865.567 293.895C862.908 291.105 861.18 290.441 855.862 290.441C847.886 290.441 845.76 292.434 847.089 298.942C848.019 304.52 847.886 304.52 841.373 301.067C834.859 297.614 832.865 297.746 822.098 301.864C811.064 306.114 802.822 313.153 797.372 323.38C790.327 336.662 788.599 346.491 788.997 371.461C789.928 416.752 790.061 413.963 786.206 421.401C784.212 425.12 779.825 430.698 776.502 433.62C765.202 443.581 743.933 449.558 732.9 445.972C728.114 444.378 718.144 434.417 719.341 432.558C719.74 432.026 722.797 431.229 726.253 430.698C742.737 428.573 758.423 412.635 763.873 392.712C771.982 363.226 763.076 337.061 743.933 333.607C738.483 332.678 718.277 337.061 710.833 340.912C703.655 344.499 694.084 355.655 690.893 363.89C686.241 376.375 685.044 386.469 685.842 404.4C687.437 438.933 696.609 458.059 715.486 466.692C721.335 469.348 724.791 470.012 733.83 470.012C759.752 469.88 785.94 454.207 795.245 433.222C797.372 428.44 799.366 424.721 799.765 424.588C800.164 424.588 802.025 426.979 804.152 429.768C806.146 432.69 810.267 436.276 813.457 437.737C823.56 442.652 832.466 440.925 844.829 431.893C849.216 428.706 853.868 424.057 855.065 421.666C856.261 419.276 857.458 417.018 857.591 416.885C857.856 416.619 859.983 417.815 862.243 419.541C869.156 424.588 878.727 423.659 897.47 415.822C901.591 414.096 889.096 429.237 874.473 443.316C824.623 491.928 758.955 517.296 690.096 514.507C672.814 513.71 666.7 513.046 648.488 509.46L641.442 507.999L646.494 503.084C650.349 499.498 653.007 494.717 656.597 485.154C663.908 466.028 667.63 449.293 672.947 410.377L677.733 375.445L674.675 369.203C670.688 361.499 665.902 357.913 659.255 357.648L654.204 357.515L653.938 370.133C653.406 393.907 650.881 424.456 646.893 455.402C642.905 485.685 641.841 491.795 640.778 490.599C640.512 490.334 636.125 468.286 631.074 441.722C626.022 415.158 621.237 391.915 620.572 390.055C616.983 381.024 602.493 374.914 595.847 379.828C593.72 381.422 594.251 385.008 604.221 438.269C610.07 469.481 615.653 496.311 616.451 497.904C617.78 500.428 617.647 500.561 614.324 499.764C612.33 499.233 606.88 497.107 602.36 495.115L594.118 491.396L591.991 477.583C587.339 448.894 586.541 437.605 586.541 404.666C586.541 358.843 590.529 331.482 602.493 293.363C608.874 273.042 623.364 239.439 628.947 232.267C629.08 232.134 634.929 230.407 641.708 228.548C648.621 226.821 661.382 221.774 670.156 217.524C704.718 200.656 730.507 175.686 746.592 143.942C753.637 129.996 754.568 124.816 751.378 117.246C747.921 108.878 739.414 104.761 728.646 106.487C722.265 107.417 706.712 116.316 689.165 129.066C667.364 144.872 630.409 184.983 618.445 205.703C614.989 211.945 611.533 212.742 592.523 211.68C568.462 210.352 551.181 203.976 538.42 191.89C527.519 181.663 525.259 176.616 525.259 162.935C525.259 154.036 525.791 150.583 528.051 146.466C531.906 138.895 533.9 138.895 533.9 146.333C533.9 156.693 536.692 170.639 539.483 173.428C544.668 179.139 552.909 178.342 557.296 171.701C559.157 168.779 559.29 167.053 557.961 159.88C557.163 155.232 556.499 143.278 556.499 133.184C556.499 114.988 555.701 110.87 551.314 107.683C550.251 106.753 541.344 104.761 531.64 103.034C521.936 101.307 513.96 99.5806 513.96 99.0493C513.96 96.7914 543.87 69.8292 554.903 61.9929C605.019 26.663 666.301 10.4591 725.057 16.9672ZM509.042 121.629C511.833 122.293 514.492 123.09 514.758 123.488C515.157 123.886 513.694 126.676 511.567 129.863C504.522 140.489 502.661 147.528 502.661 163.599C502.661 176.748 503.06 179.006 506.25 186.046C511.567 197.202 518.48 205.969 527.386 212.875C543.338 225.094 565.272 232.798 588.535 234.259L601.43 235.056L596.245 246.08C568.064 307.575 557.296 383.813 566.601 458.192C567.665 467.489 568.462 475.724 568.197 476.388C567.266 479.177 541.477 458.856 523.93 441.191C501.597 418.877 490.697 404.001 477.67 378.102C444.569 312.489 441.246 241.298 468.098 172.498C474.612 156.029 478.201 148.856 489.102 131.324C496.679 119.371 497.477 118.972 509.042 121.629ZM723.993 138.629C714.555 155.497 698.869 172.631 682.386 184.319C671.618 191.89 649.551 203.445 649.551 201.585C649.551 197.999 676.005 169.443 691.159 156.427C702.06 147.395 724.924 131.059 727.051 131.059C727.716 131.059 726.253 134.512 723.993 138.629ZM838.581 315.81C845.494 319.529 848.817 339.584 849.083 381.422C849.216 401.345 848.019 408.252 843.234 415.424C835.923 426.448 822.895 417.947 817.711 398.689C814.388 386.337 813.457 353.397 816.249 340.514C818.774 328.029 820.768 324.044 827.016 318.466C832.068 314.083 834.327 313.552 838.581 315.81ZM734.628 351.936C740.211 354.726 742.604 361.367 742.604 374.25C742.604 395.368 736.223 407.189 721.734 412.635C717.613 414.096 714.024 415.025 713.625 414.627C712.03 413.033 711.764 373.187 713.226 365.882C716.017 352.601 724.658 346.889 734.628 351.936Z" fill="#1B019B"/>
<path d="M9.856 785V694.76H26.24V771.048H69.504V785H9.856ZM78.22 729.576L71.692 724.456C75.6173 720.36 77.9213 716.392 78.604 712.552H70.412V694.76H88.332V706.408C88.332 710.845 87.564 714.899 86.028 718.568C84.5773 722.152 81.9747 725.821 78.22 729.576ZM129.918 786.28C122.835 786.28 116.734 784.957 111.614 782.312C106.494 779.667 102.526 775.912 99.71 771.048C96.9793 766.184 95.614 760.424 95.614 753.768C95.614 747.283 96.9367 741.608 99.582 736.744C102.313 731.88 106.025 728.083 110.718 725.352C115.497 722.536 120.915 721.128 126.974 721.128C135.849 721.128 142.846 723.944 147.966 729.576C153.171 735.208 155.774 742.888 155.774 752.616V757.352H110.974C112.169 768.531 118.569 774.12 130.174 774.12C133.673 774.12 137.171 773.608 140.67 772.584C144.169 771.475 147.369 769.768 150.27 767.464L154.75 778.216C151.763 780.691 148.009 782.653 143.486 784.104C138.963 785.555 134.441 786.28 129.918 786.28ZM127.614 732.008C122.921 732.008 119.123 733.459 116.222 736.36C113.321 739.261 111.571 743.187 110.974 748.136H142.462C142.121 742.931 140.67 738.963 138.11 736.232C135.635 733.416 132.137 732.008 127.614 732.008ZM159.366 785L185.606 752.616L161.03 722.408H179.718L194.822 741.736L209.926 722.408H228.614L203.91 752.744L230.278 785H211.462L194.694 763.88L178.054 785H159.366ZM237.945 808.04V722.408H253.561V732.392C255.353 728.979 258.041 726.248 261.625 724.2C265.294 722.152 269.433 721.128 274.041 721.128C279.502 721.128 284.281 722.451 288.377 725.096C292.558 727.741 295.801 731.496 298.105 736.36C300.409 741.139 301.561 746.899 301.561 753.64C301.561 760.296 300.409 766.099 298.105 771.048C295.801 775.912 292.601 779.667 288.505 782.312C284.409 784.957 279.588 786.28 274.041 786.28C269.604 786.28 265.593 785.341 262.009 783.464C258.51 781.501 255.822 778.899 253.945 775.656V808.04H237.945ZM269.561 774.12C274.34 774.12 278.18 772.413 281.081 769C283.982 765.501 285.433 760.381 285.433 753.64C285.433 746.813 283.982 741.736 281.081 738.408C278.18 734.995 274.34 733.288 269.561 733.288C264.782 733.288 260.942 734.995 258.041 738.408C255.14 741.736 253.689 746.813 253.689 753.64C253.689 760.381 255.14 765.501 258.041 769C260.942 772.413 264.782 774.12 269.561 774.12ZM343.239 786.28C336.754 786.28 331.122 784.957 326.343 782.312C321.564 779.667 317.852 775.912 315.207 771.048C312.562 766.099 311.239 760.296 311.239 753.64C311.239 746.984 312.562 741.224 315.207 736.36C317.852 731.496 321.564 727.741 326.343 725.096C331.122 722.451 336.754 721.128 343.239 721.128C349.724 721.128 355.356 722.451 360.135 725.096C364.914 727.741 368.626 731.496 371.271 736.36C373.916 741.224 375.239 746.984 375.239 753.64C375.239 760.296 373.916 766.099 371.271 771.048C368.626 775.912 364.914 779.667 360.135 782.312C355.356 784.957 349.724 786.28 343.239 786.28ZM343.239 774.12C348.018 774.12 351.858 772.413 354.759 769C357.66 765.501 359.111 760.381 359.111 753.64C359.111 746.813 357.66 741.736 354.759 738.408C351.858 734.995 348.018 733.288 343.239 733.288C338.46 733.288 334.62 734.995 331.719 738.408C328.818 741.736 327.367 746.813 327.367 753.64C327.367 760.381 328.818 765.501 331.719 769C334.62 772.413 338.46 774.12 343.239 774.12ZM388.445 785V722.408H404.061V733.416C407.133 725.992 413.704 721.896 423.773 721.128L428.637 720.744L429.661 734.312L420.445 735.208C409.949 736.232 404.701 741.608 404.701 751.336V785H388.445ZM470.867 786.28C454.312 786.28 446.035 778.088 446.035 761.704V734.44H434.003V722.408H446.035V703.72H462.035V722.408H480.979V734.44H462.035V760.808C462.035 764.904 462.931 767.976 464.723 770.024C466.515 772.072 469.416 773.096 473.427 773.096C474.622 773.096 475.859 772.968 477.139 772.712C478.419 772.371 479.742 772.029 481.107 771.688L483.539 783.464C482.003 784.317 480.04 785 477.651 785.512C475.347 786.024 473.086 786.28 470.867 786.28ZM499.97 802.024L493.442 796.904C495.575 794.771 497.154 792.723 498.178 790.76C499.287 788.883 500.055 786.963 500.482 785H492.162V767.208H510.082V778.984C510.082 783.336 509.314 787.304 507.778 790.888C506.327 794.557 503.725 798.269 499.97 802.024ZM560.076 785V722.408H575.692V732.008C577.569 728.595 580.172 725.949 583.5 724.072C586.828 722.109 590.668 721.128 595.02 721.128C604.407 721.128 610.551 725.224 613.452 733.416C615.415 729.576 618.231 726.589 621.9 724.456C625.569 722.237 629.751 721.128 634.444 721.128C648.524 721.128 655.564 729.704 655.564 746.856V785H639.564V747.496C639.564 742.717 638.753 739.219 637.132 737C635.596 734.781 632.951 733.672 629.196 733.672C625.015 733.672 621.729 735.165 619.34 738.152C616.951 741.053 615.756 745.107 615.756 750.312V785H599.756V747.496C599.756 742.717 598.945 739.219 597.324 737C595.788 734.781 593.185 733.672 589.516 733.672C585.335 733.672 582.049 735.165 579.66 738.152C577.271 741.053 576.076 745.107 576.076 750.312V785H560.076ZM700.614 786.28C694.129 786.28 688.497 784.957 683.718 782.312C678.939 779.667 675.227 775.912 672.582 771.048C669.937 766.099 668.614 760.296 668.614 753.64C668.614 746.984 669.937 741.224 672.582 736.36C675.227 731.496 678.939 727.741 683.718 725.096C688.497 722.451 694.129 721.128 700.614 721.128C707.099 721.128 712.731 722.451 717.51 725.096C722.289 727.741 726.001 731.496 728.646 736.36C731.291 741.224 732.614 746.984 732.614 753.64C732.614 760.296 731.291 766.099 728.646 771.048C726.001 775.912 722.289 779.667 717.51 782.312C712.731 784.957 707.099 786.28 700.614 786.28ZM700.614 774.12C705.393 774.12 709.233 772.413 712.134 769C715.035 765.501 716.486 760.381 716.486 753.64C716.486 746.813 715.035 741.736 712.134 738.408C709.233 734.995 705.393 733.288 700.614 733.288C695.835 733.288 691.995 734.995 689.094 738.408C686.193 741.736 684.742 746.813 684.742 753.64C684.742 760.381 686.193 765.501 689.094 769C691.995 772.413 695.835 774.12 700.614 774.12ZM744.796 708.968V693.352H762.716V708.968H744.796ZM745.82 785V722.408H761.82V785H745.82ZM778.445 785V722.408H794.061V732.136C796.194 728.552 799.053 725.821 802.637 723.944C806.306 722.067 810.402 721.128 814.925 721.128C829.688 721.128 837.069 729.704 837.069 746.856V785H821.069V747.624C821.069 742.76 820.13 739.219 818.253 737C816.461 734.781 813.645 733.672 809.805 733.672C805.112 733.672 801.357 735.165 798.541 738.152C795.81 741.053 794.445 744.936 794.445 749.8V785H778.445ZM876.232 786.28C870.941 786.28 865.992 785.64 861.384 784.36C856.776 783.08 852.936 781.245 849.864 778.856L853.96 768.36C857.117 770.493 860.659 772.157 864.584 773.352C868.509 774.461 872.435 775.016 876.36 775.016C880.456 775.016 883.485 774.333 885.448 772.968C887.496 771.517 888.52 769.64 888.52 767.336C888.52 763.752 885.875 761.448 880.584 760.424L867.784 757.992C856.947 755.944 851.528 750.312 851.528 741.096C851.528 737 852.637 733.459 854.856 730.472C857.16 727.485 860.317 725.181 864.328 723.56C868.339 721.939 872.947 721.128 878.152 721.128C882.589 721.128 886.856 721.768 890.952 723.048C895.048 724.243 898.547 726.077 901.448 728.552L897.096 739.048C894.621 737 891.635 735.379 888.136 734.184C884.723 732.989 881.437 732.392 878.28 732.392C874.099 732.392 870.984 733.117 868.936 734.568C866.973 736.019 865.992 737.939 865.992 740.328C865.992 744.083 868.424 746.387 873.288 747.24L886.088 749.672C891.635 750.696 895.816 752.573 898.632 755.304C901.533 758.035 902.984 761.704 902.984 766.312C902.984 772.541 900.552 777.448 895.688 781.032C890.824 784.531 884.339 786.28 876.232 786.28ZM972.08 786.28C964.656 786.28 959.152 784.275 955.568 780.264C952.069 776.168 950.32 770.195 950.32 762.344V694.76H966.32V761.576C966.32 769.256 969.563 773.096 976.048 773.096C976.987 773.096 977.925 773.053 978.864 772.968C979.803 772.883 980.699 772.712 981.552 772.456L981.296 785.128C978.224 785.896 975.152 786.28 972.08 786.28ZM991.22 729.576L984.692 724.456C988.617 720.36 990.921 716.392 991.604 712.552H983.412V694.76H1001.33V706.408C1001.33 710.845 1000.56 714.899 999.028 718.568C997.577 722.152 994.975 725.821 991.22 729.576ZM1042.92 786.28C1035.84 786.28 1029.73 784.957 1024.61 782.312C1019.49 779.667 1015.53 775.912 1012.71 771.048C1009.98 766.184 1008.61 760.424 1008.61 753.768C1008.61 747.283 1009.94 741.608 1012.58 736.744C1015.31 731.88 1019.02 728.083 1023.72 725.352C1028.5 722.536 1033.92 721.128 1039.97 721.128C1048.85 721.128 1055.85 723.944 1060.97 729.576C1066.17 735.208 1068.77 742.888 1068.77 752.616V757.352H1023.97C1025.17 768.531 1031.57 774.12 1043.17 774.12C1046.67 774.12 1050.17 773.608 1053.67 772.584C1057.17 771.475 1060.37 769.768 1063.27 767.464L1067.75 778.216C1064.76 780.691 1061.01 782.653 1056.49 784.104C1051.96 785.555 1047.44 786.28 1042.92 786.28ZM1040.61 732.008C1035.92 732.008 1032.12 733.459 1029.22 736.36C1026.32 739.261 1024.57 743.187 1023.97 748.136H1055.46C1055.12 742.931 1053.67 738.963 1051.11 736.232C1048.64 733.416 1045.14 732.008 1040.61 732.008ZM1085.42 785V734.44H1073.39V722.408H1085.42V722.28C1085.42 713.405 1087.72 706.707 1092.33 702.184C1097.02 697.661 1104.28 695.101 1114.09 694.504L1120.36 694.12L1121.39 705.896L1115.5 706.28C1110.38 706.621 1106.75 707.901 1104.62 710.12C1102.49 712.253 1101.42 715.453 1101.42 719.72V722.408H1118.44V734.44H1101.42V785H1085.42ZM1129.04 785V734.44H1117.01V722.408H1129.04V722.28C1129.04 713.405 1131.35 706.707 1135.96 702.184C1140.65 697.661 1147.9 695.101 1157.72 694.504L1163.99 694.12L1165.01 705.896L1159.12 706.28C1154 706.621 1150.38 707.901 1148.24 710.12C1146.11 712.253 1145.04 715.453 1145.04 719.72V722.408H1162.07V734.44H1145.04V785H1129.04ZM1198.36 786.28C1191.88 786.28 1186.25 784.957 1181.47 782.312C1176.69 779.667 1172.98 775.912 1170.33 771.048C1167.69 766.099 1166.36 760.296 1166.36 753.64C1166.36 746.984 1167.69 741.224 1170.33 736.36C1172.98 731.496 1176.69 727.741 1181.47 725.096C1186.25 722.451 1191.88 721.128 1198.36 721.128C1204.85 721.128 1210.48 722.451 1215.26 725.096C1220.04 727.741 1223.75 731.496 1226.4 736.36C1229.04 741.224 1230.36 746.984 1230.36 753.64C1230.36 760.296 1229.04 766.099 1226.4 771.048C1223.75 775.912 1220.04 779.667 1215.26 782.312C1210.48 784.957 1204.85 786.28 1198.36 786.28ZM1198.36 774.12C1203.14 774.12 1206.98 772.413 1209.88 769C1212.79 765.501 1214.24 760.381 1214.24 753.64C1214.24 746.813 1212.79 741.736 1209.88 738.408C1206.98 734.995 1203.14 733.288 1198.36 733.288C1193.59 733.288 1189.75 734.995 1186.84 738.408C1183.94 741.736 1182.49 746.813 1182.49 753.64C1182.49 760.381 1183.94 765.501 1186.84 769C1189.75 772.413 1193.59 774.12 1198.36 774.12ZM1243.57 785V722.408H1259.19V733.416C1262.26 725.992 1268.83 721.896 1278.9 721.128L1283.76 720.744L1284.79 734.312L1275.57 735.208C1265.07 736.232 1259.83 741.608 1259.83 751.336V785H1243.57ZM1325.99 786.28C1309.44 786.28 1301.16 778.088 1301.16 761.704V734.44H1289.13V722.408H1301.16V703.72H1317.16V722.408H1336.1V734.44H1317.16V760.808C1317.16 764.904 1318.06 767.976 1319.85 770.024C1321.64 772.072 1324.54 773.096 1328.55 773.096C1329.75 773.096 1330.98 772.968 1332.26 772.712C1333.54 772.371 1334.87 772.029 1336.23 771.688L1338.66 783.464C1337.13 784.317 1335.17 785 1332.78 785.512C1330.47 786.024 1328.21 786.28 1325.99 786.28ZM1383.63 758.248L1378.64 694.76H1398.35L1393.36 758.248H1383.63ZM1379.54 785V767.208H1397.46V785H1379.54Z" fill="#1B019B"/>
</svg>
