<svg width="2064" height="530" viewBox="0 0 2064 530" fill="none" xmlns="http://www.w3.org/2000/svg">
<path d="M668.856 307V216.76H685.24V293.048H728.504V307H668.856ZM737.22 251.576L730.692 246.456C734.617 242.36 736.921 238.392 737.604 234.552H729.412V216.76H747.332V228.408C747.332 232.845 746.564 236.899 745.028 240.568C743.577 244.152 740.975 247.821 737.22 251.576ZM788.918 308.28C781.835 308.28 775.734 306.957 770.614 304.312C765.494 301.667 761.526 297.912 758.71 293.048C755.979 288.184 754.614 282.424 754.614 275.768C754.614 269.283 755.937 263.608 758.582 258.744C761.313 253.88 765.025 250.083 769.718 247.352C774.497 244.536 779.915 243.128 785.974 243.128C794.849 243.128 801.846 245.944 806.966 251.576C812.171 257.208 814.774 264.888 814.774 274.616V279.352H769.974C771.169 290.531 777.569 296.12 789.174 296.12C792.673 296.12 796.171 295.608 799.67 294.584C803.169 293.475 806.369 291.768 809.27 289.464L813.75 300.216C810.763 302.691 807.009 304.653 802.486 306.104C797.963 307.555 793.441 308.28 788.918 308.28ZM786.614 254.008C781.921 254.008 778.123 255.459 775.222 258.36C772.321 261.261 770.571 265.187 769.974 270.136H801.462C801.121 264.931 799.67 260.963 797.11 258.232C794.635 255.416 791.137 254.008 786.614 254.008ZM818.366 307L844.606 274.616L820.03 244.408H838.718L853.822 263.736L868.926 244.408H887.614L862.91 274.744L889.278 307H870.462L853.694 285.88L837.054 307H818.366ZM896.945 330.04V244.408H912.561V254.392C914.353 250.979 917.041 248.248 920.625 246.2C924.294 244.152 928.433 243.128 933.041 243.128C938.502 243.128 943.281 244.451 947.377 247.096C951.558 249.741 954.801 253.496 957.105 258.36C959.409 263.139 960.561 268.899 960.561 275.64C960.561 282.296 959.409 288.099 957.105 293.048C954.801 297.912 951.601 301.667 947.505 304.312C943.409 306.957 938.588 308.28 933.041 308.28C928.604 308.28 924.593 307.341 921.009 305.464C917.51 303.501 914.822 300.899 912.945 297.656V330.04H896.945ZM928.561 296.12C933.34 296.12 937.18 294.413 940.081 291C942.982 287.501 944.433 282.381 944.433 275.64C944.433 268.813 942.982 263.736 940.081 260.408C937.18 256.995 933.34 255.288 928.561 255.288C923.782 255.288 919.942 256.995 917.041 260.408C914.14 263.736 912.689 268.813 912.689 275.64C912.689 282.381 914.14 287.501 917.041 291C919.942 294.413 923.782 296.12 928.561 296.12ZM1002.24 308.28C995.754 308.28 990.122 306.957 985.343 304.312C980.564 301.667 976.852 297.912 974.207 293.048C971.562 288.099 970.239 282.296 970.239 275.64C970.239 268.984 971.562 263.224 974.207 258.36C976.852 253.496 980.564 249.741 985.343 247.096C990.122 244.451 995.754 243.128 1002.24 243.128C1008.72 243.128 1014.36 244.451 1019.14 247.096C1023.91 249.741 1027.63 253.496 1030.27 258.36C1032.92 263.224 1034.24 268.984 1034.24 275.64C1034.24 282.296 1032.92 288.099 1030.27 293.048C1027.63 297.912 1023.91 301.667 1019.14 304.312C1014.36 306.957 1008.72 308.28 1002.24 308.28ZM1002.24 296.12C1007.02 296.12 1010.86 294.413 1013.76 291C1016.66 287.501 1018.11 282.381 1018.11 275.64C1018.11 268.813 1016.66 263.736 1013.76 260.408C1010.86 256.995 1007.02 255.288 1002.24 255.288C997.46 255.288 993.62 256.995 990.719 260.408C987.818 263.736 986.367 268.813 986.367 275.64C986.367 282.381 987.818 287.501 990.719 291C993.62 294.413 997.46 296.12 1002.24 296.12ZM1047.45 307V244.408H1063.06V255.416C1066.13 247.992 1072.7 243.896 1082.77 243.128L1087.64 242.744L1088.66 256.312L1079.45 257.208C1068.95 258.232 1063.7 263.608 1063.7 273.336V307H1047.45ZM1129.87 308.28C1113.31 308.28 1105.04 300.088 1105.04 283.704V256.44H1093V244.408H1105.04V225.72H1121.04V244.408H1139.98V256.44H1121.04V282.808C1121.04 286.904 1121.93 289.976 1123.72 292.024C1125.52 294.072 1128.42 295.096 1132.43 295.096C1133.62 295.096 1134.86 294.968 1136.14 294.712C1137.42 294.371 1138.74 294.029 1140.11 293.688L1142.54 305.464C1141 306.317 1139.04 307 1136.65 307.512C1134.35 308.024 1132.09 308.28 1129.87 308.28ZM1158.97 324.024L1152.44 318.904C1154.58 316.771 1156.15 314.723 1157.18 312.76C1158.29 310.883 1159.06 308.963 1159.48 307H1151.16V289.208H1169.08V300.984C1169.08 305.336 1168.31 309.304 1166.78 312.888C1165.33 316.557 1162.72 320.269 1158.97 324.024ZM1219.08 307V244.408H1234.69V254.008C1236.57 250.595 1239.17 247.949 1242.5 246.072C1245.83 244.109 1249.67 243.128 1254.02 243.128C1263.41 243.128 1269.55 247.224 1272.45 255.416C1274.41 251.576 1277.23 248.589 1280.9 246.456C1284.57 244.237 1288.75 243.128 1293.44 243.128C1307.52 243.128 1314.56 251.704 1314.56 268.856V307H1298.56V269.496C1298.56 264.717 1297.75 261.219 1296.13 259C1294.6 256.781 1291.95 255.672 1288.2 255.672C1284.01 255.672 1280.73 257.165 1278.34 260.152C1275.95 263.053 1274.76 267.107 1274.76 272.312V307H1258.76V269.496C1258.76 264.717 1257.95 261.219 1256.32 259C1254.79 256.781 1252.19 255.672 1248.52 255.672C1244.33 255.672 1241.05 257.165 1238.66 260.152C1236.27 263.053 1235.08 267.107 1235.08 272.312V307H1219.08ZM1359.61 308.28C1353.13 308.28 1347.5 306.957 1342.72 304.312C1337.94 301.667 1334.23 297.912 1331.58 293.048C1328.94 288.099 1327.61 282.296 1327.61 275.64C1327.61 268.984 1328.94 263.224 1331.58 258.36C1334.23 253.496 1337.94 249.741 1342.72 247.096C1347.5 244.451 1353.13 243.128 1359.61 243.128C1366.1 243.128 1371.73 244.451 1376.51 247.096C1381.29 249.741 1385 253.496 1387.65 258.36C1390.29 263.224 1391.61 268.984 1391.61 275.64C1391.61 282.296 1390.29 288.099 1387.65 293.048C1385 297.912 1381.29 301.667 1376.51 304.312C1371.73 306.957 1366.1 308.28 1359.61 308.28ZM1359.61 296.12C1364.39 296.12 1368.23 294.413 1371.13 291C1374.04 287.501 1375.49 282.381 1375.49 275.64C1375.49 268.813 1374.04 263.736 1371.13 260.408C1368.23 256.995 1364.39 255.288 1359.61 255.288C1354.84 255.288 1351 256.995 1348.09 260.408C1345.19 263.736 1343.74 268.813 1343.74 275.64C1343.74 282.381 1345.19 287.501 1348.09 291C1351 294.413 1354.84 296.12 1359.61 296.12ZM1403.8 230.968V215.352H1421.72V230.968H1403.8ZM1404.82 307V244.408H1420.82V307H1404.82ZM1437.45 307V244.408H1453.06V254.136C1455.19 250.552 1458.05 247.821 1461.64 245.944C1465.31 244.067 1469.4 243.128 1473.93 243.128C1488.69 243.128 1496.07 251.704 1496.07 268.856V307H1480.07V269.624C1480.07 264.76 1479.13 261.219 1477.25 259C1475.46 256.781 1472.65 255.672 1468.81 255.672C1464.11 255.672 1460.36 257.165 1457.54 260.152C1454.81 263.053 1453.45 266.936 1453.45 271.8V307H1437.45ZM1535.23 308.28C1529.94 308.28 1524.99 307.64 1520.38 306.36C1515.78 305.08 1511.94 303.245 1508.86 300.856L1512.96 290.36C1516.12 292.493 1519.66 294.157 1523.58 295.352C1527.51 296.461 1531.43 297.016 1535.36 297.016C1539.46 297.016 1542.49 296.333 1544.45 294.968C1546.5 293.517 1547.52 291.64 1547.52 289.336C1547.52 285.752 1544.87 283.448 1539.58 282.424L1526.78 279.992C1515.95 277.944 1510.53 272.312 1510.53 263.096C1510.53 259 1511.64 255.459 1513.86 252.472C1516.16 249.485 1519.32 247.181 1523.33 245.56C1527.34 243.939 1531.95 243.128 1537.15 243.128C1541.59 243.128 1545.86 243.768 1549.95 245.048C1554.05 246.243 1557.55 248.077 1560.45 250.552L1556.1 261.048C1553.62 259 1550.63 257.379 1547.14 256.184C1543.72 254.989 1540.44 254.392 1537.28 254.392C1533.1 254.392 1529.98 255.117 1527.94 256.568C1525.97 258.019 1524.99 259.939 1524.99 262.328C1524.99 266.083 1527.42 268.387 1532.29 269.24L1545.09 271.672C1550.63 272.696 1554.82 274.573 1557.63 277.304C1560.53 280.035 1561.98 283.704 1561.98 288.312C1561.98 294.541 1559.55 299.448 1554.69 303.032C1549.82 306.531 1543.34 308.28 1535.23 308.28ZM1631.08 308.28C1623.66 308.28 1618.15 306.275 1614.57 302.264C1611.07 298.168 1609.32 292.195 1609.32 284.344V216.76H1625.32V283.576C1625.32 291.256 1628.56 295.096 1635.05 295.096C1635.99 295.096 1636.93 295.053 1637.86 294.968C1638.8 294.883 1639.7 294.712 1640.55 294.456L1640.3 307.128C1637.22 307.896 1634.15 308.28 1631.08 308.28ZM1650.22 251.576L1643.69 246.456C1647.62 242.36 1649.92 238.392 1650.6 234.552H1642.41V216.76H1660.33V228.408C1660.33 232.845 1659.56 236.899 1658.03 240.568C1656.58 244.152 1653.97 247.821 1650.22 251.576ZM1701.92 308.28C1694.84 308.28 1688.73 306.957 1683.61 304.312C1678.49 301.667 1674.53 297.912 1671.71 293.048C1668.98 288.184 1667.61 282.424 1667.61 275.768C1667.61 269.283 1668.94 263.608 1671.58 258.744C1674.31 253.88 1678.02 250.083 1682.72 247.352C1687.5 244.536 1692.92 243.128 1698.97 243.128C1707.85 243.128 1714.85 245.944 1719.97 251.576C1725.17 257.208 1727.77 264.888 1727.77 274.616V279.352H1682.97C1684.17 290.531 1690.57 296.12 1702.17 296.12C1705.67 296.12 1709.17 295.608 1712.67 294.584C1716.17 293.475 1719.37 291.768 1722.27 289.464L1726.75 300.216C1723.76 302.691 1720.01 304.653 1715.49 306.104C1710.96 307.555 1706.44 308.28 1701.92 308.28ZM1699.61 254.008C1694.92 254.008 1691.12 255.459 1688.22 258.36C1685.32 261.261 1683.57 265.187 1682.97 270.136H1714.46C1714.12 264.931 1712.67 260.963 1710.11 258.232C1707.64 255.416 1704.14 254.008 1699.61 254.008ZM1744.42 307V256.44H1732.39V244.408H1744.42V244.28C1744.42 235.405 1746.72 228.707 1751.33 224.184C1756.02 219.661 1763.28 217.101 1773.09 216.504L1779.36 216.12L1780.39 227.896L1774.5 228.28C1769.38 228.621 1765.75 229.901 1763.62 232.12C1761.49 234.253 1760.42 237.453 1760.42 241.72V244.408H1777.44V256.44H1760.42V307H1744.42ZM1788.04 307V256.44H1776.01V244.408H1788.04V244.28C1788.04 235.405 1790.35 228.707 1794.96 224.184C1799.65 219.661 1806.9 217.101 1816.72 216.504L1822.99 216.12L1824.01 227.896L1818.12 228.28C1813 228.621 1809.38 229.901 1807.24 232.12C1805.11 234.253 1804.04 237.453 1804.04 241.72V244.408H1821.07V256.44H1804.04V307H1788.04ZM1857.36 308.28C1850.88 308.28 1845.25 306.957 1840.47 304.312C1835.69 301.667 1831.98 297.912 1829.33 293.048C1826.69 288.099 1825.36 282.296 1825.36 275.64C1825.36 268.984 1826.69 263.224 1829.33 258.36C1831.98 253.496 1835.69 249.741 1840.47 247.096C1845.25 244.451 1850.88 243.128 1857.36 243.128C1863.85 243.128 1869.48 244.451 1874.26 247.096C1879.04 249.741 1882.75 253.496 1885.4 258.36C1888.04 263.224 1889.36 268.984 1889.36 275.64C1889.36 282.296 1888.04 288.099 1885.4 293.048C1882.75 297.912 1879.04 301.667 1874.26 304.312C1869.48 306.957 1863.85 308.28 1857.36 308.28ZM1857.36 296.12C1862.14 296.12 1865.98 294.413 1868.88 291C1871.79 287.501 1873.24 282.381 1873.24 275.64C1873.24 268.813 1871.79 263.736 1868.88 260.408C1865.98 256.995 1862.14 255.288 1857.36 255.288C1852.59 255.288 1848.75 256.995 1845.84 260.408C1842.94 263.736 1841.49 268.813 1841.49 275.64C1841.49 282.381 1842.94 287.501 1845.84 291C1848.75 294.413 1852.59 296.12 1857.36 296.12ZM1902.57 307V244.408H1918.19V255.416C1921.26 247.992 1927.83 243.896 1937.9 243.128L1942.76 242.744L1943.79 256.312L1934.57 257.208C1924.07 258.232 1918.83 263.608 1918.83 273.336V307H1902.57ZM1984.99 308.28C1968.44 308.28 1960.16 300.088 1960.16 283.704V256.44H1948.13V244.408H1960.16V225.72H1976.16V244.408H1995.1V256.44H1976.16V282.808C1976.16 286.904 1977.06 289.976 1978.85 292.024C1980.64 294.072 1983.54 295.096 1987.55 295.096C1988.75 295.096 1989.98 294.968 1991.26 294.712C1992.54 294.371 1993.87 294.029 1995.23 293.688L1997.66 305.464C1996.13 306.317 1994.17 307 1991.78 307.512C1989.47 308.024 1987.21 308.28 1984.99 308.28ZM2042.63 280.248L2037.64 216.76H2057.35L2052.36 280.248H2042.63ZM2038.54 307V289.208H2056.46V307H2038.54Z" fill="white"/>
<path d="M240.473 0.896199C164.436 8.73251 96.2414 47.3828 51.3102 108.081C25.2554 143.411 9.83527 181.131 2.39105 227.352C-0.533463 245.15 -0.799328 281.41 1.72639 299.739C18.3429 419.01 110.731 511.319 230.503 528.32C248.183 530.843 284.873 530.445 302.951 527.656C400.79 512.249 479.884 448.23 514.048 356.851C525.082 327.232 529.867 299.739 530 265.87C530 220.047 521.226 183.921 500.356 143.278C465.661 75.9388 403.581 26.663 330.202 8.20122C303.084 1.29463 266.129 -1.62736 240.473 0.896199ZM290.057 16.9672C330.202 21.3503 369.152 35.0306 401.321 56.2816C496.634 119.238 537.843 236.384 502.217 343.569C497.564 357.515 482.277 390.985 481.081 389.79C480.682 389.524 480.948 384.743 481.745 379.297C484.005 361.632 483.607 357.116 479.22 352.733C473.637 347.288 472.44 347.819 472.44 355.788C472.307 366.945 469.915 380.891 466.99 387.001C463.667 393.907 456.887 398.423 450.905 397.759C443.594 397.095 441.866 391.649 440.403 363.89C437.479 308.372 436.283 300.137 430.567 293.895C427.908 291.105 426.18 290.441 420.862 290.441C412.886 290.441 410.76 292.434 412.089 298.942C413.019 304.52 412.886 304.52 406.373 301.067C399.859 297.614 397.865 297.746 387.098 301.864C376.064 306.114 367.822 313.153 362.372 323.38C355.327 336.662 353.599 346.491 353.997 371.461C354.928 416.752 355.061 413.963 351.206 421.401C349.212 425.12 344.825 430.698 341.502 433.62C330.202 443.581 308.933 449.558 297.9 445.972C293.114 444.378 283.144 434.417 284.341 432.558C284.74 432.026 287.797 431.229 291.253 430.698C307.737 428.573 323.423 412.635 328.873 392.712C336.982 363.226 328.076 337.061 308.933 333.607C303.483 332.678 283.277 337.061 275.833 340.912C268.655 344.499 259.084 355.655 255.893 363.89C251.241 376.375 250.044 386.469 250.842 404.4C252.437 438.933 261.609 458.059 280.486 466.692C286.335 469.348 289.791 470.012 298.83 470.012C324.752 469.88 350.94 454.207 360.245 433.222C362.372 428.44 364.366 424.721 364.765 424.588C365.164 424.588 367.025 426.979 369.152 429.768C371.146 432.69 375.267 436.276 378.457 437.737C388.56 442.652 397.466 440.925 409.829 431.893C414.216 428.706 418.868 424.057 420.065 421.666C421.261 419.276 422.458 417.018 422.591 416.885C422.856 416.619 424.983 417.815 427.243 419.541C434.156 424.588 443.727 423.659 462.47 415.822C466.591 414.096 454.096 429.237 439.473 443.316C389.623 491.928 323.955 517.296 255.096 514.507C237.814 513.71 231.7 513.046 213.488 509.46L206.442 507.999L211.494 503.084C215.349 499.498 218.007 494.717 221.597 485.154C228.908 466.028 232.63 449.293 237.947 410.377L242.733 375.445L239.675 369.203C235.688 361.499 230.902 357.913 224.255 357.648L219.204 357.515L218.938 370.133C218.406 393.907 215.881 424.456 211.893 455.402C207.905 485.685 206.841 491.795 205.778 490.599C205.512 490.334 201.125 468.286 196.074 441.722C191.022 415.158 186.237 391.915 185.572 390.055C181.983 381.024 167.493 374.914 160.847 379.828C158.72 381.422 159.251 385.008 169.221 438.269C175.07 469.481 180.653 496.311 181.451 497.904C182.78 500.428 182.647 500.561 179.324 499.764C177.33 499.233 171.88 497.107 167.36 495.115L159.118 491.396L156.991 477.583C152.339 448.894 151.541 437.605 151.541 404.666C151.541 358.843 155.529 331.482 167.493 293.363C173.874 273.042 188.364 239.439 193.947 232.267C194.08 232.134 199.929 230.407 206.708 228.548C213.621 226.821 226.382 221.774 235.156 217.524C269.718 200.656 295.507 175.686 311.592 143.942C318.637 129.996 319.568 124.816 316.378 117.246C312.921 108.878 304.414 104.761 293.646 106.487C287.265 107.417 271.712 116.316 254.165 129.066C232.364 144.872 195.409 184.983 183.445 205.703C179.989 211.945 176.533 212.742 157.523 211.68C133.462 210.352 116.181 203.976 103.42 191.89C92.5193 181.663 90.2594 176.616 90.2594 162.935C90.2594 154.036 90.7911 150.583 93.051 146.466C96.906 138.895 98.9 138.895 98.9 146.333C98.9 156.693 101.692 170.639 104.483 173.428C109.668 179.139 117.909 178.342 122.296 171.701C124.157 168.779 124.29 167.053 122.961 159.88C122.163 155.232 121.499 143.278 121.499 133.184C121.499 114.988 120.701 110.87 116.314 107.683C115.251 106.753 106.344 104.761 96.6402 103.034C86.9361 101.307 78.9601 99.5806 78.9601 99.0493C78.9601 96.7914 108.87 69.8292 119.903 61.9929C170.019 26.663 231.301 10.4591 290.057 16.9672ZM74.0416 121.629C76.8332 122.293 79.4919 123.09 79.7577 123.488C80.1565 123.886 78.6943 126.676 76.5674 129.863C69.5219 140.489 67.6609 147.528 67.6609 163.599C67.6609 176.748 68.0597 179.006 71.2501 186.046C76.5674 197.202 83.4798 205.969 92.3863 212.875C108.338 225.094 130.272 232.798 153.535 234.259L166.43 235.056L161.245 246.08C133.064 307.575 122.296 383.813 131.601 458.192C132.665 467.489 133.462 475.724 133.197 476.388C132.266 479.177 106.477 458.856 88.9301 441.191C66.5974 418.877 55.697 404.001 42.6696 378.102C9.56941 312.489 6.24609 241.298 33.0985 172.498C39.6121 156.029 43.2013 148.856 54.1018 131.324C61.6789 119.371 62.4765 118.972 74.0416 121.629ZM288.993 138.629C279.555 155.497 263.869 172.631 247.386 184.319C236.618 191.89 214.551 203.445 214.551 201.585C214.551 197.999 241.005 169.443 256.159 156.427C267.06 147.395 289.924 131.059 292.051 131.059C292.716 131.059 291.253 134.512 288.993 138.629ZM403.581 315.81C410.494 319.529 413.817 339.584 414.083 381.422C414.216 401.345 413.019 408.252 408.234 415.424C400.923 426.448 387.895 417.947 382.711 398.689C379.388 386.337 378.457 353.397 381.249 340.514C383.774 328.029 385.768 324.044 392.016 318.466C397.068 314.083 399.327 313.552 403.581 315.81ZM299.628 351.936C305.211 354.726 307.604 361.367 307.604 374.25C307.604 395.368 301.223 407.189 286.734 412.635C282.613 414.096 279.024 415.025 278.625 414.627C277.03 413.033 276.764 373.187 278.226 365.882C281.017 352.601 289.658 346.889 299.628 351.936Z" fill="white"/>
</svg>
