<svg width="658" height="200" viewBox="0 0 658 200" fill="none" xmlns="http://www.w3.org/2000/svg">
<path d="M294.302 43L273.903 76.2681V103H261.28V76.2681L241 43H255.19L267.518 63.8568L279.993 43H294.302Z" fill="white"/>
<path d="M329.536 43H342.278L320.283 103H310.291L288.296 43H301.363L315.435 83.5018L329.536 43Z" fill="white"/>
<path d="M345.159 103V43H379.511V55.0808H357.427V66.5006H378.121V78.4712H357.427V90.9192H379.511V103H345.159Z" fill="white"/>
<path d="M422.879 103L418.563 90.5887H397.189L392.873 103H380.191L402.747 43H412.739L435.355 103H422.879ZM401.239 78.8384H414.513L407.861 59.5973L401.239 78.8384Z" fill="white"/>
<path d="M262.5 148V140.674L263.094 142.368L256.428 132.49H259.706L264.282 139.53H263.666L268.242 132.49H271.41L264.766 142.368L265.338 140.674V148H262.5ZM271.101 140.234C271.101 138.606 271.394 137.198 271.981 136.01C272.582 134.822 273.44 133.905 274.555 133.26C275.669 132.6 276.997 132.27 278.537 132.27C280.062 132.27 281.382 132.6 282.497 133.26C283.611 133.905 284.469 134.822 285.071 136.01C285.687 137.198 285.995 138.599 285.995 140.212C285.995 141.84 285.687 143.255 285.071 144.458C284.469 145.646 283.611 146.57 282.497 147.23C281.382 147.89 280.062 148.22 278.537 148.22C276.997 148.22 275.669 147.89 274.555 147.23C273.455 146.57 272.604 145.646 272.003 144.458C271.401 143.255 271.101 141.847 271.101 140.234ZM274.071 140.234C274.071 141.979 274.445 143.343 275.193 144.326C275.941 145.309 277.055 145.8 278.537 145.8C279.974 145.8 281.081 145.309 281.859 144.326C282.636 143.343 283.025 141.979 283.025 140.234C283.025 138.474 282.636 137.11 281.859 136.142C281.096 135.174 279.989 134.69 278.537 134.69C277.055 134.69 275.941 135.174 275.193 136.142C274.445 137.11 274.071 138.474 274.071 140.234ZM295.391 148.22C293.176 148.22 291.526 147.67 290.441 146.57C289.37 145.455 288.835 143.813 288.835 141.642V132.49H291.673V141.62C291.673 142.999 291.966 144.04 292.553 144.744C293.154 145.448 294.1 145.8 295.391 145.8C296.623 145.8 297.547 145.448 298.163 144.744C298.794 144.04 299.109 142.999 299.109 141.62V132.49H301.903V141.642C301.903 143.813 301.353 145.455 300.253 146.57C299.168 147.67 297.547 148.22 295.391 148.22ZM305.208 148V132.49H311.984C313.686 132.49 314.998 132.893 315.922 133.7C316.861 134.507 317.33 135.629 317.33 137.066C317.33 138.019 317.118 138.833 316.692 139.508C316.282 140.183 315.688 140.703 314.91 141.07C314.133 141.422 313.216 141.598 312.16 141.598L312.468 141.18H313.216C313.832 141.18 314.382 141.341 314.866 141.664C315.35 141.987 315.746 142.478 316.054 143.138L318.32 148H315.196L312.908 142.962C312.703 142.449 312.388 142.111 311.962 141.95C311.552 141.789 311.053 141.708 310.466 141.708H308.046V148H305.208ZM308.046 139.618H311.522C312.52 139.618 313.275 139.413 313.788 139.002C314.316 138.577 314.58 137.961 314.58 137.154C314.58 136.347 314.316 135.739 313.788 135.328C313.275 134.917 312.52 134.712 311.522 134.712H308.046V139.618ZM331.709 148L324.801 132.49H327.859L333.425 145.514H332.501L338.067 132.49H341.015L334.107 148H331.709ZM342.548 148V132.49H345.386V148H342.548ZM348.8 148V132.49H355.576C357.277 132.49 358.59 132.893 359.514 133.7C360.453 134.507 360.922 135.629 360.922 137.066C360.922 138.019 360.709 138.833 360.284 139.508C359.873 140.183 359.279 140.703 358.502 141.07C357.725 141.422 356.808 141.598 355.752 141.598L356.06 141.18H356.808C357.424 141.18 357.974 141.341 358.458 141.664C358.942 141.987 359.338 142.478 359.646 143.138L361.912 148H358.788L356.5 142.962C356.295 142.449 355.979 142.111 355.554 141.95C355.143 141.789 354.645 141.708 354.058 141.708H351.638V148H348.8ZM351.638 139.618H355.114C356.111 139.618 356.867 139.413 357.38 139.002C357.908 138.577 358.172 137.961 358.172 137.154C358.172 136.347 357.908 135.739 357.38 135.328C356.867 134.917 356.111 134.712 355.114 134.712H351.638V139.618ZM367.47 148V134.822H362.344V132.49H375.434V134.822H370.308V148H367.47ZM383.907 148.22C381.692 148.22 380.042 147.67 378.957 146.57C377.886 145.455 377.351 143.813 377.351 141.642V132.49H380.189V141.62C380.189 142.999 380.482 144.04 381.069 144.744C381.67 145.448 382.616 145.8 383.907 145.8C385.139 145.8 386.063 145.448 386.679 144.744C387.309 144.04 387.625 142.999 387.625 141.62V132.49H390.419V141.642C390.419 143.813 389.869 145.455 388.769 146.57C387.683 147.67 386.063 148.22 383.907 148.22ZM391.9 148L398.918 132.49H401.294L408.4 148H405.518L403.626 143.644L404.77 144.414H395.464L396.652 143.644L394.76 148H391.9ZM400.084 135.526L396.982 142.874L396.41 142.192H403.802L403.34 142.874L400.172 135.526H400.084ZM410.116 148V132.49H412.954V145.602H420.258V148H410.116ZM428.464 148V132.49H438.914V134.712H431.192V139.002H438.408V141.246H431.192V145.756H438.914V148H428.464ZM439.549 148L445.929 139.508V140.718L439.769 132.49H443.091L447.557 138.672H446.655L451.099 132.49H454.443L448.261 140.718V139.508L454.663 148H451.319L446.611 141.532H447.579L442.871 148H439.549ZM456.2 148V132.49H463.086C464.788 132.49 466.086 132.901 466.98 133.722C467.875 134.543 468.322 135.673 468.322 137.11C468.322 138.533 467.875 139.662 466.98 140.498C466.086 141.334 464.788 141.752 463.086 141.752H459.038V148H456.2ZM459.038 139.508H462.756C463.695 139.508 464.399 139.303 464.868 138.892C465.338 138.467 465.572 137.873 465.572 137.11C465.572 136.347 465.338 135.761 464.868 135.35C464.399 134.925 463.695 134.712 462.756 134.712H459.038V139.508ZM470.239 140.234C470.239 138.606 470.533 137.198 471.119 136.01C471.721 134.822 472.579 133.905 473.693 133.26C474.808 132.6 476.135 132.27 477.675 132.27C479.201 132.27 480.521 132.6 481.635 133.26C482.75 133.905 483.608 134.822 484.209 136.01C484.825 137.198 485.133 138.599 485.133 140.212C485.133 141.84 484.825 143.255 484.209 144.458C483.608 145.646 482.75 146.57 481.635 147.23C480.521 147.89 479.201 148.22 477.675 148.22C476.135 148.22 474.808 147.89 473.693 147.23C472.593 146.57 471.743 145.646 471.141 144.458C470.54 143.255 470.239 141.847 470.239 140.234ZM473.209 140.234C473.209 141.979 473.583 143.343 474.331 144.326C475.079 145.309 476.194 145.8 477.675 145.8C479.113 145.8 480.22 145.309 480.997 144.326C481.775 143.343 482.163 141.979 482.163 140.234C482.163 138.474 481.775 137.11 480.997 136.142C480.235 135.174 479.127 134.69 477.675 134.69C476.194 134.69 475.079 135.174 474.331 136.142C473.583 137.11 473.209 138.474 473.209 140.234ZM488.062 148V132.49H494.838C496.539 132.49 497.852 132.893 498.776 133.7C499.714 134.507 500.184 135.629 500.184 137.066C500.184 138.019 499.971 138.833 499.546 139.508C499.135 140.183 498.541 140.703 497.764 141.07C496.986 141.422 496.07 141.598 495.014 141.598L495.322 141.18H496.07C496.686 141.18 497.236 141.341 497.72 141.664C498.204 141.987 498.6 142.478 498.908 143.138L501.174 148H498.05L495.762 142.962C495.556 142.449 495.241 142.111 494.816 141.95C494.405 141.789 493.906 141.708 493.32 141.708H490.9V148H488.062ZM490.9 139.618H494.376C495.373 139.618 496.128 139.413 496.642 139.002C497.17 138.577 497.434 137.961 497.434 137.154C497.434 136.347 497.17 135.739 496.642 135.328C496.128 134.917 495.373 134.712 494.376 134.712H490.9V139.618ZM506.731 148V134.822H501.605V132.49H514.695V134.822H509.569V148H506.731ZM521.021 148L528.039 132.49H530.415L537.521 148H534.639L532.747 143.644L533.891 144.414H524.585L525.773 143.644L523.881 148H521.021ZM529.205 135.526L526.103 142.874L525.531 142.192H532.923L532.461 142.874L529.293 135.526H529.205ZM544.478 148.22C543.231 148.22 542.08 148.066 541.024 147.758C539.982 147.435 539.088 146.995 538.34 146.438L539.22 144.216C539.718 144.568 540.239 144.869 540.782 145.118C541.324 145.353 541.904 145.536 542.52 145.668C543.136 145.785 543.788 145.844 544.478 145.844C545.636 145.844 546.472 145.653 546.986 145.272C547.499 144.891 547.756 144.392 547.756 143.776C547.756 143.233 547.58 142.823 547.228 142.544C546.876 142.251 546.245 142.009 545.336 141.818L542.85 141.312C541.427 141.019 540.364 140.527 539.66 139.838C538.956 139.149 538.604 138.225 538.604 137.066C538.604 136.098 538.86 135.255 539.374 134.536C539.887 133.817 540.606 133.26 541.53 132.864C542.454 132.468 543.532 132.27 544.764 132.27C545.864 132.27 546.883 132.431 547.822 132.754C548.76 133.062 549.545 133.509 550.176 134.096L549.296 136.208C548.665 135.68 547.976 135.291 547.228 135.042C546.48 134.778 545.644 134.646 544.72 134.646C543.678 134.646 542.864 134.851 542.278 135.262C541.706 135.658 541.42 136.208 541.42 136.912C541.42 137.455 541.596 137.887 541.948 138.21C542.314 138.533 542.93 138.782 543.796 138.958L546.26 139.442C547.726 139.735 548.812 140.219 549.516 140.894C550.22 141.554 550.572 142.449 550.572 143.578C550.572 144.502 550.322 145.316 549.824 146.02C549.325 146.709 548.621 147.252 547.712 147.648C546.802 148.029 545.724 148.22 544.478 148.22ZM558.657 148.22C557.411 148.22 556.259 148.066 555.203 147.758C554.162 147.435 553.267 146.995 552.519 146.438L553.399 144.216C553.898 144.568 554.419 144.869 554.961 145.118C555.504 145.353 556.083 145.536 556.699 145.668C557.315 145.785 557.968 145.844 558.657 145.844C559.816 145.844 560.652 145.653 561.165 145.272C561.679 144.891 561.935 144.392 561.935 143.776C561.935 143.233 561.759 142.823 561.407 142.544C561.055 142.251 560.425 142.009 559.515 141.818L557.029 141.312C555.607 141.019 554.543 140.527 553.839 139.838C553.135 139.149 552.783 138.225 552.783 137.066C552.783 136.098 553.04 135.255 553.553 134.536C554.067 133.817 554.785 133.26 555.709 132.864C556.633 132.468 557.711 132.27 558.943 132.27C560.043 132.27 561.063 132.431 562.001 132.754C562.94 133.062 563.725 133.509 564.355 134.096L563.475 136.208C562.845 135.68 562.155 135.291 561.407 135.042C560.659 134.778 559.823 134.646 558.899 134.646C557.858 134.646 557.044 134.851 556.457 135.262C555.885 135.658 555.599 136.208 555.599 136.912C555.599 137.455 555.775 137.887 556.127 138.21C556.494 138.533 557.11 138.782 557.975 138.958L560.439 139.442C561.906 139.735 562.991 140.219 563.695 140.894C564.399 141.554 564.751 142.449 564.751 143.578C564.751 144.502 564.502 145.316 564.003 146.02C563.505 146.709 562.801 147.252 561.891 147.648C560.982 148.029 559.904 148.22 558.657 148.22ZM567.425 148V132.49H570.263V148H567.425ZM579.089 148.22C577.842 148.22 576.691 148.066 575.635 147.758C574.594 147.435 573.699 146.995 572.951 146.438L573.831 144.216C574.33 144.568 574.85 144.869 575.393 145.118C575.936 145.353 576.515 145.536 577.131 145.668C577.747 145.785 578.4 145.844 579.089 145.844C580.248 145.844 581.084 145.653 581.597 145.272C582.11 144.891 582.367 144.392 582.367 143.776C582.367 143.233 582.191 142.823 581.839 142.544C581.487 142.251 580.856 142.009 579.947 141.818L577.461 141.312C576.038 141.019 574.975 140.527 574.271 139.838C573.567 139.149 573.215 138.225 573.215 137.066C573.215 136.098 573.472 135.255 573.985 134.536C574.498 133.817 575.217 133.26 576.141 132.864C577.065 132.468 578.143 132.27 579.375 132.27C580.475 132.27 581.494 132.431 582.433 132.754C583.372 133.062 584.156 133.509 584.787 134.096L583.907 136.208C583.276 135.68 582.587 135.291 581.839 135.042C581.091 134.778 580.255 134.646 579.331 134.646C578.29 134.646 577.476 134.851 576.889 135.262C576.317 135.658 576.031 136.208 576.031 136.912C576.031 137.455 576.207 137.887 576.559 138.21C576.926 138.533 577.542 138.782 578.407 138.958L580.871 139.442C582.338 139.735 583.423 140.219 584.127 140.894C584.831 141.554 585.183 142.449 585.183 143.578C585.183 144.502 584.934 145.316 584.435 146.02C583.936 146.709 583.232 147.252 582.323 147.648C581.414 148.029 580.336 148.22 579.089 148.22ZM591.186 148V134.822H586.06V132.49H599.15V134.822H594.024V148H591.186ZM597.721 148L604.739 132.49H607.115L614.221 148H611.339L609.447 143.644L610.591 144.414H601.285L602.473 143.644L600.581 148H597.721ZM605.905 135.526L602.803 142.874L602.231 142.192H609.623L609.161 142.874L605.993 135.526H605.905ZM615.937 148V132.49H618.071L627.069 144.128H626.497V132.49H629.137V148H627.003L618.027 136.362H618.577V148H615.937ZM636.196 148V134.822H631.07V132.49H644.16V134.822H639.034V148H636.196Z" fill="white"/>
<path d="M145.707 123.693L149.19 114.364L120.996 94.1665L145.707 123.693Z" fill="white"/>
<mask id="mask0_4212_41644" style="mask-type:luminance" maskUnits="userSpaceOnUse" x="120" y="93" width="80" height="23">
<path d="M120.93 93.5752H200V115.052H120.93V93.5752Z" fill="white"/>
</mask>
<g mask="url(#mask0_4212_41644)">
<path d="M121.711 94.4422L149.74 114.814L199.99 104.908L121.711 94.4422Z" fill="white"/>
</g>
<path d="M71.4327 73.741L83.2785 75.812C88.1636 70.0898 94.6223 65.2047 102.201 61.4813L99.3046 52.6275C96.5242 53.8326 93.8596 55.1747 91.3205 56.6395L39.9406 28.7287L77.1963 67.2179C75.082 69.2889 73.1512 71.468 71.4327 73.741Z" fill="white"/>
<mask id="mask1_4212_41644" style="mask-type:luminance" maskUnits="userSpaceOnUse" x="115" y="0" width="43" height="56">
<path d="M115.992 0H157.967V55.9913H115.992V0Z" fill="white"/>
</mask>
<g mask="url(#mask1_4212_41644)">
<path d="M137.616 53.4116C142.101 53.4116 146.489 53.7472 150.723 54.3834L157.022 46.84C153.954 46.2458 150.801 45.7914 147.589 45.4837L137.616 -0.00701904L127.633 45.4837C124.151 45.8193 120.737 46.3297 117.419 46.9938L123.833 54.4952C128.27 53.7821 132.88 53.4116 137.616 53.4116Z" fill="white"/>
</g>
<mask id="mask2_4212_41644" style="mask-type:luminance" maskUnits="userSpaceOnUse" x="0" y="98" width="77" height="18">
<path d="M0 98.9443H76.4854V115.052H0V98.9443Z" fill="white"/>
</mask>
<g mask="url(#mask2_4212_41644)">
<path d="M64.6798 114.667L75 110.004C74.0355 106.781 73.5147 103.426 73.5147 99.993H0.00964355L62.6061 107.243C63.0691 109.773 63.7635 112.255 64.6798 114.667Z" fill="white"/>
</g>
<mask id="mask3_4212_41644" style="mask-type:luminance" maskUnits="userSpaceOnUse" x="0" y="84" width="77" height="17">
<path d="M0 84.6268H76.4854V100.734H0V84.6268Z" fill="white"/>
</mask>
<g mask="url(#mask3_4212_41644)">
<path d="M74.8553 90.4713L64.4676 85.8852C63.6574 88.1223 63.0305 90.4084 62.6061 92.7434L0.00964355 99.9931H73.5147C73.5147 96.7283 73.9776 93.5404 74.8553 90.4713Z" fill="white"/>
</g>
<mask id="mask4_4212_41644" style="mask-type:luminance" maskUnits="userSpaceOnUse" x="115" y="145" width="43" height="55">
<path d="M115.992 145.477H157.967V200H115.992V145.477Z" fill="white"/>
</mask>
<g mask="url(#mask4_4212_41644)">
<path d="M137.616 146.567C133.121 146.567 128.742 146.232 124.508 145.596L118.21 153.146C121.277 153.733 124.421 154.188 127.633 154.495L137.616 199.986L147.589 154.495C151.08 154.16 154.495 153.656 157.813 152.985L151.389 145.491C146.952 146.197 142.342 146.567 137.616 146.567Z" fill="white"/>
</g>
<path d="M84.8865 125.289L72.7368 127.4C74.4044 129.434 76.2407 131.382 78.2458 133.24L39.9406 170.777L92.7679 143.562C95.5969 145.102 98.5847 146.51 101.711 147.769L104.55 139.115C96.7086 135.541 89.9985 130.82 84.8865 125.289Z" fill="white"/>
<path d="M77.5317 99.7527H96.3131C97.4477 91.9952 101.682 84.9361 108.075 79.3013L102.927 63.8417C87.605 71.6268 77.5317 84.8047 77.5317 99.7527Z" fill="white"/>
<path d="M136.99 56.6595C133.135 56.6595 129.358 56.921 125.695 57.4166L134.456 67.5282C139.072 66.5852 143.939 66.0827 148.979 66.0827C166.384 66.0827 181.833 72.1056 191.48 81.3981C181.842 66.778 161.064 56.6595 136.99 56.6595Z" fill="white"/>
<path d="M149.033 142.584C128.546 142.584 110.77 134.283 101.819 122.097L86.9294 124.741C97.8826 136.159 116.193 143.644 136.943 143.644C141.549 143.644 146.049 143.274 150.364 142.57C149.917 142.577 149.48 142.584 149.033 142.584Z" fill="white"/>
<path d="M96.3273 99.7527H77.5317C77.5317 102.757 77.9287 105.69 78.6672 108.531L96.2719 100.199C96.2904 100.05 96.3088 99.9015 96.3273 99.7527Z" fill="white"/>
</svg>
